<?xml version="1.0" encoding="UTF-8" standalone="no"?>
<!-- Generator: Adobe Illustrator 19.0.0, SVG Export Plug-In . SVG Version: 6.00 Build 0)  -->
<svg id="Layer_1" style="enable-background:new 0 0 480 480" xmlns="http://www.w3.org/2000/svg" xml:space="preserve" viewBox="0 0 480 480" version="1.1" y="0px" x="0px" xmlns:xlink="http://www.w3.org/1999/xlink">
<g transform="translate(0 -540.36)">
	<path d="m24 630.36h432c13.296 0 24 10.704 24 24v252c0 13.296-10.704 24-24 24h-432c-13.296 0-24-10.704-24-24v-252c0-13.3 10.704-24 24-24z" fill="#913D88"/>
	<g fill="#662B5F">
		<path d="m75.242 863.2c0-1.823-0.173-3.105-0.518-3.848-0.339-0.749-0.911-1.123-1.719-1.123-0.807 0-1.383 0.374-1.729 1.123-0.345 0.742-0.518 2.025-0.518 3.848 0 1.842 0.173 3.141 0.518 3.896s0.921 1.133 1.729 1.133c0.801 0 1.374-0.378 1.719-1.133 0.346-0.76 0.518-2.06 0.518-3.9zm3.76 0.03c0 2.415-0.521 4.281-1.563 5.596-1.042 1.309-2.52 1.963-4.434 1.963-1.921 0-3.402-0.654-4.443-1.963-1.042-1.315-1.563-3.18-1.563-5.596 0-2.422 0.521-4.287 1.563-5.596 1.042-1.315 2.523-1.973 4.443-1.973 1.914 0 3.392 0.658 4.434 1.973 1.042 1.31 1.563 3.18 1.563 5.6z"/>
		<path d="m82.068 855.92h9.346v2.764h-6.348v2.256c0.286-0.078 0.573-0.137 0.859-0.176 0.293-0.046 0.596-0.068 0.908-0.068 1.777 0 3.161 0.446 4.15 1.338 0.99 0.885 1.484 2.122 1.484 3.711 0 1.576-0.54 2.809-1.621 3.701-1.074 0.892-2.568 1.338-4.482 1.338-0.827 0-1.647-0.081-2.461-0.244-0.807-0.156-1.611-0.397-2.412-0.723v-2.959c0.794 0.456 1.546 0.798 2.256 1.025 0.716 0.228 1.39 0.342 2.021 0.342 0.911 0 1.628-0.221 2.148-0.664 0.527-0.449 0.791-1.055 0.791-1.816 0-0.768-0.264-1.374-0.791-1.816-0.521-0.443-1.237-0.664-2.148-0.664-0.54 0-1.117 0.072-1.729 0.215-0.612 0.137-1.27 0.352-1.973 0.645v-8.2h0.002z"/>
		<path d="m105.94 855.92h2.168l-5.146 16.436h-2.158l5.14-16.44z"/>
		<path d="m117.41 867.91h3.32v-9.424l-3.408 0.703v-2.559l3.389-0.703h3.574v11.982h3.32v2.598h-10.19v-2.6z"/>
		<path d="m138.29 862.64c0.983 0.254 1.729 0.697 2.236 1.328 0.514 0.625 0.771 1.423 0.771 2.393 0 1.445-0.553 2.546-1.66 3.301-1.107 0.749-2.721 1.123-4.844 1.123-0.749 0-1.501-0.062-2.256-0.186-0.749-0.117-1.491-0.296-2.227-0.537v-2.9c0.703 0.352 1.4 0.619 2.09 0.801 0.697 0.176 1.38 0.264 2.051 0.264 0.996 0 1.758-0.172 2.285-0.518 0.534-0.345 0.801-0.84 0.801-1.484 0-0.664-0.273-1.165-0.82-1.504-0.54-0.345-1.341-0.518-2.402-0.518h-1.504v-2.422h1.582c0.944 0 1.647-0.146 2.109-0.439 0.462-0.299 0.693-0.752 0.693-1.357 0-0.56-0.225-0.993-0.674-1.299s-1.084-0.459-1.904-0.459c-0.605 0-1.217 0.068-1.836 0.205-0.618 0.137-1.234 0.339-1.846 0.605v-2.754c0.742-0.208 1.478-0.365 2.207-0.469s1.445-0.156 2.148-0.156c1.895 0 3.311 0.313 4.248 0.938 0.944 0.619 1.416 1.553 1.416 2.803 0 0.853-0.225 1.553-0.674 2.1-0.47 0.56-1.13 0.94-2.01 1.16z"/>
		<path d="m150.92 863.33h6.133v2.842h-6.133v-2.84z"/>
		<path d="m174.3 863.2c0-1.823-0.173-3.105-0.518-3.848-0.339-0.749-0.911-1.123-1.719-1.123-0.807 0-1.383 0.374-1.729 1.123-0.345 0.742-0.518 2.025-0.518 3.848 0 1.842 0.173 3.141 0.518 3.896s0.921 1.133 1.729 1.133c0.801 0 1.374-0.378 1.719-1.133 0.35-0.76 0.52-2.06 0.52-3.9zm3.76 0.03c0 2.415-0.521 4.281-1.563 5.596-1.042 1.309-2.52 1.963-4.434 1.963-1.921 0-3.402-0.654-4.443-1.963-1.042-1.315-1.563-3.18-1.563-5.596 0-2.422 0.521-4.287 1.563-5.596 1.042-1.315 2.523-1.973 4.443-1.973 1.914 0 3.392 0.658 4.434 1.973 1.04 1.31 1.56 3.18 1.56 5.6z"/>
		<path d="m181.13 855.92h9.346v2.764h-6.348v2.256c0.286-0.078 0.573-0.137 0.859-0.176 0.293-0.046 0.596-0.068 0.908-0.068 1.777 0 3.161 0.446 4.15 1.338 0.99 0.885 1.484 2.122 1.484 3.711 0 1.576-0.54 2.809-1.621 3.701-1.074 0.892-2.568 1.338-4.482 1.338-0.827 0-1.647-0.081-2.461-0.244-0.807-0.156-1.611-0.397-2.412-0.723v-2.959c0.794 0.456 1.546 0.798 2.256 1.025 0.716 0.228 1.39 0.342 2.021 0.342 0.911 0 1.628-0.221 2.148-0.664 0.527-0.449 0.791-1.055 0.791-1.816 0-0.768-0.264-1.374-0.791-1.816-0.521-0.443-1.237-0.664-2.148-0.664-0.54 0-1.117 0.072-1.729 0.215-0.612 0.137-1.27 0.352-1.973 0.645l-0.01-8.2z"/>
		<path d="m205.01 855.92h2.168l-5.146 16.436h-2.158l5.14-16.44z"/>
		<path d="m216.47 867.91h3.32v-9.424l-3.408 0.703v-2.559l3.389-0.703h3.574v11.982h3.32v2.598h-10.195v-2.6z"/>
		<path d="m235 863.98c-0.703 0-1.243 0.192-1.621 0.576s-0.566 0.934-0.566 1.65 0.189 1.266 0.566 1.65c0.378 0.378 0.918 0.566 1.621 0.566 0.697 0 1.23-0.189 1.602-0.566 0.371-0.384 0.557-0.934 0.557-1.65 0-0.723-0.186-1.273-0.557-1.65-0.37-0.39-0.9-0.58-1.6-0.58zm-2.75-1.24c-0.885-0.267-1.553-0.677-2.002-1.23s-0.674-1.243-0.674-2.07c0-1.23 0.459-2.168 1.377-2.813s2.266-0.967 4.043-0.967c1.764 0 3.105 0.322 4.023 0.967 0.918 0.638 1.377 1.576 1.377 2.813 0 0.827-0.228 1.517-0.684 2.07-0.449 0.553-1.117 0.964-2.002 1.23 0.99 0.273 1.735 0.719 2.236 1.338 0.508 0.612 0.762 1.387 0.762 2.324 0 1.445-0.482 2.539-1.445 3.281-0.957 0.736-2.38 1.104-4.268 1.104-1.895 0-3.327-0.368-4.297-1.104-0.964-0.742-1.445-1.836-1.445-3.281 0-0.938 0.251-1.712 0.752-2.324 0.51-0.62 1.25-1.07 2.24-1.34zm0.88-2.92c0 0.579 0.16 1.025 0.479 1.338 0.326 0.313 0.788 0.469 1.387 0.469 0.586 0 1.038-0.156 1.357-0.469s0.479-0.758 0.479-1.338c0-0.579-0.16-1.022-0.479-1.328-0.319-0.313-0.771-0.469-1.357-0.469-0.599 0-1.061 0.156-1.387 0.469-0.32 0.31-0.48 0.76-0.48 1.33z"/>
		<path d="m33.577 785.35h13.552v2.905h-10.391v6.255c0.501-0.171 1.003-0.296 1.504-0.376 0.501-0.091 1.003-0.137 1.504-0.137 2.848 0 5.104 0.78 6.768 2.341 1.663 1.561 2.495 3.674 2.495 6.34 0 2.746-0.854 4.882-2.563 6.409-1.709 1.515-4.119 2.273-7.229 2.273-1.071 0-2.165-0.091-3.281-0.273-1.105-0.182-2.25-0.456-3.435-0.82v-3.469c1.025 0.558 2.085 0.974 3.179 1.248 1.094 0.273 2.25 0.41 3.469 0.41 1.971 0 3.532-0.518 4.683-1.555s1.726-2.444 1.726-4.221-0.575-3.184-1.726-4.221-2.712-1.555-4.683-1.555c-0.923 0-1.846 0.103-2.769 0.308-0.911 0.205-1.846 0.524-2.803 0.957v-12.82z"/>
		<path d="m65.312 788.36l-8.716 13.621h8.716v-13.62zm-0.905-3.01h4.341v16.628h3.64v2.871h-3.64v6.016h-3.435v-6.016h-11.519v-3.333l10.613-16.17z"/>
		<path d="m78.147 785.35h13.552v2.905h-10.39v6.255c0.501-0.171 1.003-0.296 1.504-0.376 0.501-0.091 1.003-0.137 1.504-0.137 2.848 0 5.104 0.78 6.768 2.341 1.663 1.561 2.495 3.674 2.495 6.34 0 2.746-0.854 4.882-2.563 6.409-1.709 1.515-4.119 2.273-7.229 2.273-1.071 0-2.165-0.091-3.281-0.273-1.105-0.182-2.25-0.456-3.435-0.82v-3.469c1.025 0.558 2.085 0.974 3.179 1.248 1.094 0.273 2.25 0.41 3.469 0.41 1.971 0 3.532-0.518 4.683-1.555s1.726-2.444 1.726-4.221-0.575-3.184-1.726-4.221c-1.151-1.037-2.712-1.555-4.683-1.555-0.923 0-1.846 0.103-2.769 0.308-0.911 0.205-1.846 0.524-2.803 0.957-0.001 0-0.001-12.82-0.001-12.82z"/>
		<path d="m103.37 807.96h12.048v2.905h-16.201v-2.905c1.31-1.356 3.093-3.173 5.349-5.452 2.267-2.29 3.691-3.765 4.272-4.426 1.105-1.242 1.874-2.29 2.307-3.145 0.444-0.866 0.666-1.715 0.666-2.546 0-1.356-0.479-2.461-1.436-3.315-0.946-0.854-2.182-1.282-3.708-1.282-1.082 0-2.227 0.188-3.435 0.564-1.196 0.376-2.478 0.946-3.845 1.709v-3.486c1.39-0.558 2.689-0.98 3.896-1.265 1.208-0.285 2.313-0.427 3.315-0.427 2.643 0 4.751 0.661 6.323 1.982 1.572 1.322 2.358 3.088 2.358 5.298 0 1.048-0.199 2.045-0.598 2.991-0.387 0.934-1.099 2.039-2.136 3.315-0.285 0.33-1.191 1.287-2.717 2.871-1.52 1.57-3.67 3.77-6.45 6.61z"/>
		<path d="m147.94 807.96h12.048v2.905h-16.201v-2.905c1.31-1.356 3.093-3.173 5.349-5.452 2.267-2.29 3.691-3.765 4.272-4.426 1.105-1.242 1.874-2.29 2.307-3.145 0.444-0.866 0.666-1.715 0.667-2.546 0-1.356-0.479-2.461-1.436-3.315-0.946-0.854-2.182-1.282-3.708-1.282-1.082 0-2.227 0.188-3.435 0.564-1.196 0.376-2.478 0.946-3.845 1.709v-3.486c1.39-0.558 2.689-0.98 3.896-1.265 1.208-0.285 2.313-0.427 3.315-0.427 2.643 0 4.751 0.661 6.323 1.982 1.572 1.322 2.358 3.088 2.358 5.298 0 1.048-0.199 2.045-0.598 2.991-0.387 0.934-1.099 2.039-2.136 3.315-0.285 0.33-1.191 1.287-2.717 2.871-1.52 1.57-3.68 3.77-6.46 6.61z"/>
		<path d="m166.38 785.35h16.406v1.47l-9.263 24.045h-3.606l8.716-22.61h-12.253v-2.9z"/>
		<path d="m189.57 785.35h13.552v2.905h-10.391v6.255c0.501-0.171 1.003-0.296 1.504-0.376 0.501-0.091 1.003-0.137 1.504-0.137 2.848 0 5.104 0.78 6.768 2.341 1.663 1.561 2.495 3.674 2.495 6.34 0 2.746-0.854 4.882-2.563 6.409-1.709 1.515-4.119 2.273-7.229 2.273-1.071 0-2.165-0.091-3.281-0.273-1.105-0.182-2.25-0.456-3.435-0.82v-3.469c1.025 0.558 2.085 0.974 3.179 1.248s2.25 0.41 3.469 0.41c1.971 0 3.532-0.518 4.683-1.555s1.726-2.444 1.726-4.221-0.575-3.184-1.726-4.221c-1.151-1.037-2.712-1.555-4.683-1.555-0.923 0-1.846 0.103-2.769 0.308-0.911 0.205-1.846 0.524-2.803 0.957l-0.01-12.82z"/>
		<path d="m214.8 807.96h12.048v2.905h-16.201v-2.905c1.31-1.356 3.093-3.173 5.349-5.452 2.267-2.29 3.691-3.765 4.272-4.426 1.105-1.242 1.874-2.29 2.307-3.145 0.444-0.866 0.666-1.715 0.667-2.546 0-1.356-0.479-2.461-1.436-3.315-0.946-0.854-2.182-1.282-3.708-1.282-1.082 0-2.227 0.188-3.435 0.564-1.196 0.376-2.478 0.946-3.845 1.709v-3.486c1.39-0.558 2.689-0.98 3.896-1.265 1.208-0.285 2.313-0.427 3.315-0.427 2.643 0 4.751 0.661 6.323 1.982 1.572 1.322 2.358 3.088 2.358 5.298 0 1.048-0.199 2.045-0.598 2.991-0.387 0.934-1.099 2.039-2.136 3.315-0.285 0.33-1.191 1.287-2.717 2.871-1.53 1.57-3.68 3.77-6.46 6.61z"/>
		<path d="m263.78 787.62c-1.777 0-3.116 0.877-4.016 2.632-0.889 1.743-1.333 4.369-1.333 7.878 0 3.498 0.444 6.124 1.333 7.878 0.9 1.743 2.239 2.615 4.016 2.615 1.789 0 3.127-0.872 4.016-2.615 0.9-1.755 1.35-4.381 1.35-7.878 0-3.509-0.45-6.135-1.35-7.878-0.9-1.74-2.23-2.62-4.02-2.62zm0-2.73c2.86 0 5.042 1.134 6.545 3.401 1.515 2.256 2.273 5.537 2.273 9.844 0 4.295-0.758 7.577-2.273 9.844-1.504 2.256-3.686 3.384-6.545 3.384-2.86 0-5.047-1.128-6.563-3.384-1.504-2.267-2.256-5.548-2.256-9.844 0-4.307 0.752-7.588 2.256-9.844 1.51-2.27 3.7-3.4 6.56-3.4z"/>
		<path d="m286.06 787.62c-1.777 0-3.116 0.877-4.016 2.632-0.889 1.743-1.333 4.369-1.333 7.878 0 3.498 0.444 6.124 1.333 7.878 0.9 1.743 2.239 2.615 4.016 2.615 1.789 0 3.127-0.872 4.016-2.615 0.9-1.755 1.35-4.381 1.35-7.878 0-3.509-0.45-6.135-1.35-7.878-0.89-1.74-2.23-2.62-4.02-2.62zm0-2.73c2.86 0 5.042 1.134 6.545 3.401 1.515 2.256 2.273 5.537 2.273 9.844 0 4.295-0.758 7.577-2.273 9.844-1.504 2.256-3.686 3.384-6.545 3.384-2.86 0-5.047-1.128-6.563-3.384-1.504-2.267-2.256-5.548-2.256-9.844 0-4.307 0.752-7.588 2.256-9.844 1.52-2.27 3.7-3.4 6.56-3.4z"/>
		<path d="m308.35 787.62c-1.777 0-3.116 0.877-4.016 2.632-0.889 1.743-1.333 4.369-1.333 7.878 0 3.498 0.444 6.124 1.333 7.878 0.9 1.743 2.239 2.615 4.016 2.615 1.789 0 3.127-0.872 4.016-2.615 0.9-1.755 1.35-4.381 1.35-7.878 0-3.509-0.45-6.135-1.35-7.878-0.89-1.74-2.23-2.62-4.02-2.62zm0-2.73c2.86 0 5.042 1.134 6.545 3.401 1.515 2.256 2.273 5.537 2.273 9.844 0 4.295-0.758 7.577-2.273 9.844-1.504 2.256-3.686 3.384-6.545 3.384-2.86 0-5.047-1.128-6.563-3.384-1.504-2.267-2.256-5.548-2.256-9.844 0-4.307 0.752-7.588 2.256-9.844 1.5-2.27 3.69-3.4 6.55-3.4z"/>
		<path d="m322.38 785.35h16.406v1.47l-9.263 24.045h-3.606l8.716-22.61h-12.253v-2.9z"/>
		<path d="m375.63 796.73c-1.549 0-2.78 0.53-3.691 1.589-0.9 1.06-1.35 2.512-1.35 4.358 0 1.834 0.45 3.287 1.35 4.358 0.911 1.06 2.142 1.589 3.691 1.589s2.774-0.53 3.674-1.589c0.911-1.071 1.367-2.524 1.367-4.358 0-1.846-0.456-3.298-1.367-4.358-0.9-1.06-2.12-1.59-3.67-1.59zm6.85-10.82v3.145c-0.866-0.41-1.743-0.723-2.632-0.94-0.877-0.216-1.749-0.325-2.615-0.325-2.279 0-4.022 0.769-5.229 2.307-1.196 1.538-1.88 3.862-2.051 6.973 0.672-0.991 1.515-1.749 2.529-2.273 1.014-0.535 2.131-0.803 3.35-0.803 2.563 0 4.586 0.78 6.067 2.341 1.492 1.549 2.239 3.663 2.239 6.34 0 2.62-0.775 4.723-2.324 6.306-1.549 1.584-3.612 2.375-6.187 2.375-2.951 0-5.207-1.128-6.768-3.384-1.561-2.267-2.341-5.548-2.341-9.844 0-4.033 0.957-7.246 2.871-9.639 1.914-2.404 4.483-3.606 7.708-3.606 0.866 0 1.737 0.085 2.615 0.256 0.88 0.15 1.81 0.4 2.76 0.74z"/>
		<path d="m389.23 785.35h16.406v1.47l-9.263 24.045h-3.606l8.716-22.61h-12.253v-2.9z"/>
		<path d="m412.49 810.34v-3.145c0.866 0.41 1.743 0.724 2.632 0.94s1.76 0.325 2.615 0.325c2.279 0 4.016-0.763 5.212-2.29 1.208-1.538 1.897-3.868 2.068-6.99-0.661 0.98-1.498 1.732-2.512 2.256s-2.136 0.786-3.367 0.786c-2.552 0-4.574-0.769-6.067-2.307-1.481-1.549-2.222-3.663-2.222-6.34 0-2.62 0.775-4.722 2.324-6.306s3.612-2.375 6.187-2.375c2.951 0 5.201 1.134 6.75 3.401 1.561 2.256 2.341 5.537 2.341 9.844 0 4.022-0.957 7.235-2.871 9.639-1.903 2.393-4.466 3.589-7.69 3.589-0.866 0-1.743-0.085-2.632-0.256s-1.81-0.43-2.77-0.77zm6.87-10.82c1.549 0 2.774-0.53 3.674-1.589 0.911-1.06 1.367-2.512 1.367-4.358 0-1.834-0.456-3.281-1.367-4.341-0.9-1.071-2.125-1.606-3.674-1.606s-2.78 0.536-3.691 1.606c-0.9 1.06-1.35 2.507-1.35 4.341 0 1.846 0.45 3.298 1.35 4.358 0.91 1.06 2.14 1.59 3.69 1.59z"/>
		<path d="m435.27 807.96h5.64v-19.465l-6.135 1.23v-3.145l6.101-1.23h3.452v22.61h5.64v2.905h-14.697v-2.9z"/>
	</g>
	<g fill="#EBCA3D">
		<path d="m44.001 721.61v9.625h20.273v-9.625c0-0.01-20.273-0.01-20.273-0.01z"/>
		<path d="m67.524 721.61v9.625h23.469v-9.625h-23.469z"/>
		<path d="m94.243 721.61v9.625h20.258v-9.625c0-0.01-20.257-0.01-20.257-0.01z"/>
		<path d="m44.001 734.48v9.625h20.273v-9.625h-20.273z"/>
		<path d="m67.524 734.48v9.625h23.469v-9.625h-23.469z"/>
		<path d="m94.243 734.48v9.625h20.258v-9.625h-20.257z"/>
		<path d="m55.998 699.36c-6.646 0-11.998 5.359-11.998 12.018v6.982h33.928l-14.711-19h-7.219z"/>
		<path d="m95.709 699.36l-14.32 19h33.111v-6.982c0-6.658-5.352-12.018-11.998-12.018h-6.791z"/>
		<path d="m67.079 699.36l12.422 16.5 12.34-16.487-24.762-0.01z"/>
		<path d="m55.998 766.36c-6.646 0-11.998-5.359-11.998-12.018v-6.982h33.928l-14.711 19h-7.219z"/>
		<path d="m95.709 766.36l-14.32-19h33.111v6.982c0 6.658-5.352 12.018-11.998 12.018h-6.791z"/>
		<path d="m67.057 766.32l12.444-16.456 12.34 16.487-24.784-0.03z"/>
	</g>
	<path d="m409 873.86c0 20.711-16.789 37.5-37.5 37.5s-37.5-16.789-37.5-37.5 16.789-37.5 37.5-37.5c20.71 0 37.5 16.79 37.5 37.5z" fill="#E74C3C"/>
	<path d="m458.88 873.86c0 20.711-16.789 37.5-37.5 37.5s-37.5-16.789-37.5-37.5 16.789-37.5 37.5-37.5c20.71 0 37.5 16.79 37.5 37.5z" fill="#FCD116"/>
	<g transform="translate(0 540.36)" fill="#E74C3C">
		<path d="m373.6 307.5v3.5h27.855c-0.909-1.225-1.892-2.394-2.943-3.5h-24.92z"/>
		<path d="m373.6 314.5v3.5h31.996c-0.544-1.198-1.15-2.366-1.816-3.5h-30.18z"/>
		<path d="m373.6 321.5v3.5h34.379c-0.276-1.182-0.609-2.35-0.998-3.5h-33.38z"/>
		<path d="m373.6 328.5v3.5h35.35c-0.054-1.171-0.163-2.339-0.326-3.5h-35.02z"/>
	</g>
	<path id="SVGCleanerId_0" fill="#E74C3C" d="m373.6 882.86v3.5h33.209c0.406-1.149 0.756-2.317 1.049-3.5h-34.26z"/>
	<path d="m373.6 875.86v3.5h34.949c0.173-1.161 0.29-2.328 0.354-3.5h-35.3z" fill="#E74C3C"/>
		<path id="SVGCleanerId_0_1_" fill="#E74C3C" d="m373.6 882.86v3.5h33.209c0.406-1.149 0.756-2.317 1.049-3.5h-34.26z"/>
	<g transform="translate(0 540.36)" fill="#E74C3C">
		<path d="m373.6 349.5v3.5h29.881c0.69-1.132 1.32-2.301 1.887-3.5h-31.77z"/>
		<path d="m373.6 356.5v3.5h24.404c1.092-1.102 2.114-2.271 3.061-3.5h-27.46z"/>
	</g>
	<g fill="#DCC6E0">
		<path d="m32.341 784.34h13.552v2.905h-10.39v6.255c0.501-0.171 1.003-0.296 1.504-0.376 0.501-0.091 1.003-0.137 1.504-0.137 2.848 0 5.104 0.78 6.768 2.341 1.663 1.561 2.495 3.674 2.495 6.34 0 2.746-0.854 4.882-2.563 6.409-1.709 1.515-4.119 2.273-7.229 2.273-1.071 0-2.165-0.091-3.281-0.273-1.105-0.182-2.25-0.456-3.435-0.82v-3.469c1.025 0.558 2.085 0.974 3.179 1.248 1.094 0.273 2.25 0.41 3.469 0.41 1.971 0 3.532-0.518 4.683-1.555s1.726-2.444 1.726-4.221-0.575-3.184-1.726-4.221c-1.151-1.037-2.712-1.555-4.683-1.555-0.923 0-1.846 0.103-2.769 0.308-0.911 0.205-1.846 0.524-2.803 0.957v-12.81z"/>
		<path d="m64.077 787.35l-8.716 13.621h8.716v-13.62zm-0.906-3.01h4.341v16.628h3.64v2.871h-3.64v6.016h-3.435v-6.016h-11.518v-3.333l10.612-16.17z"/>
		<path d="m76.912 784.34h13.552v2.905h-10.391v6.255c0.501-0.171 1.003-0.296 1.504-0.376 0.501-0.091 1.003-0.137 1.504-0.137 2.848 0 5.104 0.78 6.768 2.341 1.663 1.561 2.495 3.674 2.495 6.34 0 2.746-0.854 4.882-2.563 6.409-1.709 1.515-4.119 2.273-7.229 2.273-1.071 0-2.165-0.091-3.281-0.273-1.105-0.182-2.25-0.456-3.435-0.82v-3.469c1.025 0.558 2.085 0.974 3.179 1.248s2.25 0.41 3.469 0.41c1.971 0 3.532-0.518 4.683-1.555s1.726-2.444 1.726-4.221-0.575-3.184-1.726-4.221c-1.151-1.037-2.712-1.555-4.683-1.555-0.923 0-1.846 0.103-2.769 0.308-0.911 0.205-1.846 0.524-2.803 0.957v-12.81z"/>
		<path d="m102.14 806.96h12.048v2.905h-16.207v-2.905c1.31-1.356 3.093-3.173 5.349-5.452 2.267-2.29 3.691-3.765 4.272-4.426 1.105-1.242 1.874-2.29 2.307-3.145 0.444-0.866 0.666-1.715 0.666-2.546 0-1.356-0.479-2.461-1.436-3.315-0.946-0.854-2.182-1.282-3.708-1.282-1.082 0-2.227 0.188-3.435 0.564-1.196 0.376-2.478 0.946-3.845 1.709v-3.486c1.39-0.558 2.689-0.98 3.896-1.265 1.208-0.285 2.313-0.427 3.315-0.427 2.643 0 4.751 0.661 6.323 1.982 1.572 1.322 2.358 3.088 2.358 5.298 0 1.048-0.199 2.045-0.598 2.991-0.387 0.934-1.099 2.039-2.136 3.315-0.285 0.33-1.191 1.287-2.717 2.871-1.51 1.56-3.66 3.77-6.44 6.61z"/>
		<path d="m146.71 806.96h12.048v2.905h-16.201v-2.905c1.31-1.356 3.093-3.173 5.349-5.452 2.267-2.29 3.691-3.765 4.272-4.426 1.105-1.242 1.874-2.29 2.307-3.145 0.444-0.866 0.667-1.715 0.667-2.546 0-1.356-0.479-2.461-1.436-3.315-0.946-0.854-2.182-1.282-3.708-1.282-1.082 0-2.227 0.188-3.435 0.564-1.196 0.376-2.478 0.946-3.845 1.709v-3.486c1.39-0.558 2.689-0.98 3.896-1.265 1.208-0.285 2.313-0.427 3.315-0.427 2.643 0 4.751 0.661 6.323 1.982 1.572 1.322 2.358 3.088 2.358 5.298 0 1.048-0.199 2.045-0.598 2.991-0.387 0.934-1.099 2.039-2.136 3.315-0.285 0.33-1.191 1.287-2.717 2.871-1.54 1.56-3.69 3.77-6.47 6.61z"/>
		<path d="m165.15 784.34h16.406v1.47l-9.263 24.045h-3.606l8.716-22.61h-12.253v-2.91z"/>
		<path d="m188.34 784.34h13.552v2.905h-10.391v6.255c0.501-0.171 1.003-0.296 1.504-0.376 0.501-0.091 1.003-0.137 1.504-0.137 2.848 0 5.104 0.78 6.768 2.341 1.663 1.561 2.495 3.674 2.495 6.34 0 2.746-0.854 4.882-2.563 6.409-1.709 1.515-4.119 2.273-7.229 2.273-1.071 0-2.165-0.091-3.281-0.273-1.105-0.182-2.25-0.456-3.435-0.82v-3.469c1.025 0.558 2.085 0.974 3.179 1.248s2.25 0.41 3.469 0.41c1.971 0 3.532-0.518 4.683-1.555s1.726-2.444 1.726-4.221-0.575-3.184-1.726-4.221c-1.151-1.037-2.712-1.555-4.683-1.555-0.923 0-1.846 0.103-2.769 0.308-0.911 0.205-1.846 0.524-2.803 0.957v-12.81z"/>
		<path d="m213.56 806.96h12.048v2.905h-16.201v-2.905c1.31-1.356 3.093-3.173 5.349-5.452 2.267-2.29 3.691-3.765 4.272-4.426 1.105-1.242 1.874-2.29 2.307-3.145 0.444-0.866 0.667-1.715 0.667-2.546 0-1.356-0.479-2.461-1.436-3.315-0.946-0.854-2.182-1.282-3.708-1.282-1.082 0-2.227 0.188-3.435 0.564-1.196 0.376-2.478 0.946-3.845 1.709v-3.486c1.39-0.558 2.689-0.98 3.896-1.265 1.208-0.285 2.313-0.427 3.315-0.427 2.643 0 4.751 0.661 6.323 1.982 1.572 1.322 2.358 3.088 2.358 5.298 0 1.048-0.199 2.045-0.598 2.991-0.387 0.934-1.099 2.039-2.136 3.315-0.285 0.33-1.191 1.287-2.717 2.871-1.52 1.56-3.68 3.77-6.46 6.61z"/>
		<path d="m262.54 786.62c-1.777 0-3.116 0.877-4.016 2.632-0.889 1.743-1.333 4.369-1.333 7.878 0 3.498 0.444 6.124 1.333 7.878 0.9 1.743 2.239 2.615 4.016 2.615 1.789 0 3.127-0.872 4.016-2.615 0.9-1.755 1.35-4.381 1.35-7.878 0-3.509-0.45-6.135-1.35-7.878-0.89-1.74-2.23-2.62-4.02-2.62zm0-2.74c2.86 0 5.042 1.134 6.545 3.401 1.515 2.256 2.273 5.537 2.273 9.844 0 4.295-0.758 7.577-2.273 9.844-1.504 2.256-3.686 3.384-6.545 3.384s-5.047-1.128-6.563-3.384c-1.504-2.267-2.256-5.548-2.256-9.844 0-4.307 0.752-7.588 2.256-9.844 1.51-2.26 3.7-3.4 6.56-3.4z"/>
		<path d="m284.83 786.62c-1.777 0-3.116 0.877-4.016 2.632-0.889 1.743-1.333 4.369-1.333 7.878 0 3.498 0.444 6.124 1.333 7.878 0.9 1.743 2.239 2.615 4.016 2.615 1.789 0 3.127-0.872 4.016-2.615 0.9-1.755 1.35-4.381 1.35-7.878 0-3.509-0.45-6.135-1.35-7.878-0.9-1.74-2.23-2.62-4.02-2.62zm0-2.74c2.86 0 5.042 1.134 6.545 3.401 1.515 2.256 2.273 5.537 2.273 9.844 0 4.295-0.758 7.577-2.273 9.844-1.504 2.256-3.686 3.384-6.545 3.384s-5.047-1.128-6.563-3.384c-1.504-2.267-2.256-5.548-2.256-9.844 0-4.307 0.752-7.588 2.256-9.844 1.5-2.26 3.69-3.4 6.55-3.4z"/>
		<path d="m307.11 786.62c-1.777 0-3.116 0.877-4.016 2.632-0.889 1.743-1.333 4.369-1.333 7.878 0 3.498 0.444 6.124 1.333 7.878 0.9 1.743 2.239 2.615 4.016 2.615 1.789 0 3.127-0.872 4.016-2.615 0.9-1.755 1.35-4.381 1.35-7.878 0-3.509-0.45-6.135-1.35-7.878-0.89-1.74-2.23-2.62-4.02-2.62zm0-2.74c2.86 0 5.042 1.134 6.545 3.401 1.515 2.256 2.273 5.537 2.273 9.844 0 4.295-0.758 7.577-2.273 9.844-1.504 2.256-3.686 3.384-6.545 3.384s-5.047-1.128-6.563-3.384c-1.504-2.267-2.256-5.548-2.256-9.844 0-4.307 0.752-7.588 2.256-9.844 1.5-2.26 3.69-3.4 6.55-3.4z"/>
		<path d="m321.14 784.34h16.406v1.47l-9.263 24.045h-3.606l8.716-22.61h-12.253v-2.91z"/>
		<path d="m374.4 795.73c-1.549 0-2.78 0.53-3.691 1.589-0.9 1.06-1.35 2.512-1.35 4.358 0 1.834 0.45 3.287 1.35 4.358 0.911 1.06 2.142 1.589 3.691 1.589s2.774-0.53 3.674-1.589c0.911-1.071 1.367-2.524 1.367-4.358 0-1.846-0.456-3.298-1.367-4.358-0.9-1.06-2.13-1.59-3.67-1.59zm6.85-10.82v3.145c-0.866-0.41-1.743-0.723-2.632-0.94-0.877-0.216-1.749-0.325-2.615-0.325-2.279 0-4.022 0.769-5.229 2.307-1.196 1.538-1.88 3.862-2.051 6.973 0.672-0.991 1.515-1.749 2.529-2.273 1.014-0.535 2.131-0.803 3.35-0.803 2.563 0 4.586 0.78 6.067 2.341 1.493 1.549 2.239 3.663 2.239 6.34 0 2.62-0.775 4.723-2.324 6.306-1.549 1.584-3.612 2.375-6.187 2.375-2.951 0-5.207-1.128-6.768-3.384-1.561-2.267-2.341-5.548-2.341-9.844 0-4.033 0.957-7.246 2.871-9.639 1.914-2.404 4.483-3.606 7.708-3.606 0.866 0 1.737 0.085 2.615 0.256 0.89 0.14 1.81 0.4 2.77 0.74z"/>
		<path d="m388 784.34h16.406v1.47l-9.263 24.045h-3.606l8.716-22.61h-12.253v-2.91z"/>
		<path d="m411.26 809.33v-3.145c0.866 0.41 1.743 0.724 2.632 0.94s1.76 0.325 2.615 0.325c2.279 0 4.016-0.763 5.212-2.29 1.208-1.538 1.897-3.868 2.068-6.99-0.661 0.98-1.498 1.732-2.512 2.256s-2.136 0.786-3.367 0.786c-2.552 0-4.574-0.769-6.067-2.307-1.481-1.549-2.222-3.663-2.222-6.34 0-2.62 0.775-4.722 2.324-6.306s3.612-2.375 6.187-2.375c2.951 0 5.201 1.134 6.75 3.401 1.561 2.256 2.341 5.537 2.341 9.844 0 4.022-0.957 7.235-2.871 9.639-1.903 2.393-4.466 3.589-7.69 3.589-0.866 0-1.743-0.085-2.632-0.256s-1.81-0.42-2.76-0.76zm6.87-10.82c1.549 0 2.774-0.53 3.674-1.589 0.911-1.06 1.367-2.512 1.367-4.358 0-1.834-0.456-3.281-1.367-4.341-0.9-1.071-2.125-1.606-3.674-1.606s-2.78 0.536-3.691 1.606c-0.9 1.06-1.35 2.507-1.35 4.341 0 1.846 0.45 3.298 1.35 4.358 0.91 1.06 2.14 1.59 3.69 1.59z"/>
		<path d="m434.04 806.96h5.64v-19.465l-6.135 1.23v-3.145l6.101-1.23h3.452v22.61h5.64v2.905h-14.697v-2.9z"/>
		<path d="m74.242 862.2c0-1.823-0.173-3.105-0.518-3.848-0.339-0.749-0.911-1.123-1.719-1.123-0.807 0-1.383 0.374-1.729 1.123-0.345 0.742-0.518 2.025-0.518 3.848 0 1.842 0.173 3.141 0.518 3.896s0.921 1.133 1.729 1.133c0.801 0 1.374-0.378 1.719-1.133 0.346-0.76 0.518-2.06 0.518-3.9zm3.76 0.03c0 2.415-0.521 4.281-1.563 5.596-1.042 1.309-2.52 1.963-4.434 1.963-1.921 0-3.402-0.654-4.443-1.963-1.042-1.315-1.563-3.18-1.563-5.596 0-2.422 0.521-4.287 1.563-5.596 1.042-1.315 2.523-1.973 4.443-1.973 1.914 0 3.392 0.658 4.434 1.973 1.042 1.31 1.563 3.18 1.563 5.6z"/>
		<path d="m81.068 854.92h9.346v2.764h-6.348v2.256c0.286-0.078 0.573-0.137 0.859-0.176 0.293-0.046 0.596-0.068 0.908-0.068 1.777 0 3.161 0.446 4.15 1.338 0.99 0.885 1.484 2.122 1.484 3.711 0 1.576-0.54 2.809-1.621 3.701-1.074 0.892-2.568 1.338-4.482 1.338-0.827 0-1.647-0.081-2.461-0.244-0.807-0.156-1.611-0.397-2.412-0.723v-2.959c0.794 0.456 1.546 0.798 2.256 1.025 0.716 0.228 1.39 0.342 2.021 0.342 0.911 0 1.628-0.221 2.148-0.664 0.527-0.449 0.791-1.055 0.791-1.816 0-0.768-0.264-1.374-0.791-1.816-0.521-0.443-1.237-0.664-2.148-0.664-0.54 0-1.117 0.072-1.729 0.215-0.612 0.137-1.27 0.352-1.973 0.645v-8.2h0.002z"/>
		<path d="m104.94 854.92h2.168l-5.146 16.436h-2.158l5.138-16.44z"/>
		<path d="m116.41 866.91h3.32v-9.424l-3.408 0.703v-2.559l3.389-0.703h3.574v11.982h3.32v2.598h-10.19v-2.6z"/>
		<path d="m137.29 861.64c0.983 0.254 1.729 0.697 2.236 1.328 0.514 0.625 0.771 1.423 0.771 2.393 0 1.445-0.553 2.546-1.66 3.301-1.107 0.749-2.721 1.123-4.844 1.123-0.749 0-1.501-0.062-2.256-0.186-0.749-0.117-1.491-0.296-2.227-0.537v-2.9c0.703 0.352 1.4 0.619 2.09 0.801 0.697 0.176 1.38 0.264 2.051 0.264 0.996 0 1.758-0.172 2.285-0.518 0.534-0.345 0.801-0.84 0.801-1.484 0-0.664-0.273-1.165-0.82-1.504-0.54-0.345-1.341-0.518-2.402-0.518h-1.504v-2.422h1.582c0.944 0 1.647-0.146 2.109-0.439 0.462-0.299 0.693-0.752 0.693-1.357 0-0.56-0.225-0.993-0.674-1.299s-1.084-0.459-1.904-0.459c-0.605 0-1.217 0.068-1.836 0.205s-1.234 0.339-1.846 0.605v-2.754c0.742-0.208 1.478-0.365 2.207-0.469s1.445-0.156 2.148-0.156c1.895 0 3.311 0.313 4.248 0.938 0.944 0.619 1.416 1.553 1.416 2.803 0 0.853-0.225 1.553-0.674 2.1-0.47 0.56-1.13 0.94-2.01 1.16z"/>
		<path d="m149.92 862.33h6.133v2.842h-6.133v-2.84z"/>
		<path d="m173.3 862.2c0-1.823-0.173-3.105-0.518-3.848-0.339-0.749-0.911-1.123-1.719-1.123-0.807 0-1.383 0.374-1.729 1.123-0.345 0.742-0.518 2.025-0.518 3.848 0 1.842 0.173 3.141 0.518 3.896s0.921 1.133 1.729 1.133c0.801 0 1.374-0.378 1.719-1.133 0.35-0.76 0.52-2.06 0.52-3.9zm3.76 0.03c0 2.415-0.521 4.281-1.563 5.596-1.042 1.309-2.52 1.963-4.434 1.963-1.921 0-3.402-0.654-4.443-1.963-1.042-1.315-1.563-3.18-1.563-5.596 0-2.422 0.521-4.287 1.563-5.596 1.042-1.315 2.523-1.973 4.443-1.973 1.914 0 3.392 0.658 4.434 1.973 1.04 1.31 1.56 3.18 1.56 5.6z"/>
		<path d="m180.13 854.92h9.346v2.764h-6.348v2.256c0.286-0.078 0.573-0.137 0.859-0.176 0.293-0.046 0.596-0.068 0.908-0.068 1.777 0 3.161 0.446 4.15 1.338 0.99 0.885 1.484 2.122 1.484 3.711 0 1.576-0.54 2.809-1.621 3.701-1.074 0.892-2.568 1.338-4.482 1.338-0.827 0-1.647-0.081-2.461-0.244-0.807-0.156-1.611-0.397-2.412-0.723v-2.959c0.794 0.456 1.546 0.798 2.256 1.025 0.716 0.228 1.39 0.342 2.021 0.342 0.911 0 1.628-0.221 2.148-0.664 0.527-0.449 0.791-1.055 0.791-1.816 0-0.768-0.264-1.374-0.791-1.816-0.521-0.443-1.237-0.664-2.148-0.664-0.54 0-1.117 0.072-1.729 0.215-0.612 0.137-1.27 0.352-1.973 0.645l-0.01-8.2z"/>
		<path d="m204.01 854.92h2.168l-5.146 16.436h-2.158l5.14-16.44z"/>
		<path d="m215.47 866.91h3.32v-9.424l-3.408 0.703v-2.559l3.389-0.703h3.574v11.982h3.32v2.598h-10.195v-2.6z"/>
		<path d="m234 862.98c-0.703 0-1.243 0.192-1.621 0.576s-0.566 0.934-0.566 1.65 0.189 1.266 0.566 1.65c0.378 0.378 0.918 0.566 1.621 0.566 0.697 0 1.23-0.189 1.602-0.566 0.371-0.384 0.557-0.934 0.557-1.65 0-0.723-0.186-1.273-0.557-1.65-0.37-0.39-0.9-0.58-1.6-0.58zm-2.75-1.24c-0.885-0.267-1.553-0.677-2.002-1.23s-0.674-1.243-0.674-2.07c0-1.23 0.459-2.168 1.377-2.813s2.266-0.967 4.043-0.967c1.764 0 3.105 0.322 4.023 0.967 0.918 0.638 1.377 1.576 1.377 2.813 0 0.827-0.228 1.517-0.684 2.07-0.449 0.553-1.117 0.964-2.002 1.23 0.99 0.273 1.735 0.719 2.236 1.338 0.508 0.612 0.762 1.387 0.762 2.324 0 1.445-0.482 2.539-1.445 3.281-0.957 0.736-2.38 1.104-4.268 1.104-1.895 0-3.327-0.368-4.297-1.104-0.964-0.742-1.445-1.836-1.445-3.281 0-0.938 0.251-1.712 0.752-2.324 0.51-0.62 1.25-1.07 2.24-1.34zm0.88-2.92c0 0.579 0.16 1.025 0.479 1.338 0.326 0.313 0.788 0.469 1.387 0.469 0.586 0 1.038-0.156 1.357-0.469s0.479-0.758 0.479-1.338c0-0.579-0.16-1.022-0.479-1.328-0.319-0.313-0.771-0.469-1.357-0.469-0.599 0-1.061 0.156-1.387 0.469-0.32 0.31-0.48 0.76-0.48 1.33z"/>
	</g>
	<g fill="#EBCA3D">
		<path d="m316.55 648.62h2.739l4.216 16.946 4.203-16.946h3.048l4.216 16.946 4.203-16.946h2.753l-5.035 20.048h-3.411l-4.23-17.402-4.27 17.402h-3.411l-5.03-20.05z"/>
		<path d="m363.65 650.46c-1.969 0-3.536 0.734-4.7 2.202-1.155 1.468-1.732 3.469-1.732 6.002 0 2.524 0.577 4.521 1.732 5.989 1.164 1.468 2.73 2.202 4.7 2.202 1.969 0 3.527-0.734 4.673-2.202 1.155-1.468 1.732-3.464 1.732-5.989 0-2.533-0.577-4.534-1.732-6.002-1.14-1.47-2.7-2.2-4.67-2.2zm0-2.21c2.811 0 5.058 0.944 6.741 2.833 1.683 1.88 2.524 4.404 2.524 7.573 0 3.16-0.841 5.684-2.524 7.573-1.683 1.88-3.93 2.82-6.741 2.82-2.82 0-5.076-0.94-6.768-2.82-1.683-1.88-2.524-4.404-2.524-7.573s0.841-5.693 2.524-7.573c1.7-1.88 3.95-2.83 6.77-2.83z"/>
		<path d="m396.67 659.26c0.582 0.197 1.146 0.618 1.692 1.262 0.555 0.645 1.11 1.531 1.665 2.659l2.753 5.479h-2.914l-2.565-5.143c-0.662-1.343-1.307-2.233-1.934-2.672-0.618-0.439-1.464-0.658-2.538-0.658h-2.954v8.473h-2.712v-20.048h6.123c2.292 0 4.001 0.479 5.129 1.437s1.692 2.404 1.692 4.337c0 1.262-0.295 2.31-0.886 3.142-0.58 0.83-1.43 1.41-2.55 1.73zm-6.8-8.41v7.117h3.411c1.307 0 2.292-0.3 2.954-0.9 0.671-0.609 1.007-1.499 1.007-2.672s-0.336-2.054-1.007-2.645c-0.662-0.6-1.647-0.9-2.954-0.9h-3.41z"/>
		<path d="m416.28 648.62h2.712v17.765h9.762v2.283h-12.474v-20.04z"/>
		<path d="m444.3 650.85v15.59h3.276c2.766 0 4.789-0.627 6.069-1.88 1.289-1.253 1.934-3.232 1.934-5.935 0-2.686-0.645-4.65-1.934-5.895-1.28-1.253-3.303-1.88-6.069-1.88h-3.28zm-2.71-2.23h5.573c3.885 0 6.736 0.81 8.553 2.43 1.817 1.611 2.726 4.136 2.726 7.573 0 3.455-0.913 5.993-2.739 7.614-1.826 1.62-4.673 2.43-8.54 2.43h-5.573v-20.04z"/>
	</g>
	<g fill="#DCC6E0">
		<path d="m27.595 899.51h1.603v11.846h-1.603v-11.85z"/>
		<path d="m39.711 906v5.364h-1.46v-5.316c0-0.841-0.164-1.471-0.492-1.888-0.328-0.418-0.82-0.627-1.476-0.627-0.788 0-1.41 0.251-1.865 0.754s-0.682 1.188-0.682 2.055v5.023h-1.468v-8.887h1.468v1.381c0.349-0.534 0.759-0.934 1.23-1.198 0.476-0.265 1.024-0.397 1.642-0.397 1.021 0 1.793 0.317 2.317 0.952 0.524 0.66 0.786 1.59 0.786 2.82z"/>
		<path d="m44.083 899.95v2.523h3.007v1.135h-3.007v4.824c0 0.725 0.098 1.19 0.294 1.396 0.201 0.206 0.606 0.309 1.214 0.309h1.5v1.222h-1.5c-1.127 0-1.904-0.209-2.333-0.627-0.428-0.423-0.643-1.19-0.643-2.301v-4.824h-1.071v-1.135h1.071v-2.523h1.468z"/>
		<path d="m56.62 906.55v0.714h-6.713c0.063 1.005 0.365 1.772 0.905 2.301 0.545 0.524 1.301 0.786 2.269 0.786 0.561 0 1.103-0.069 1.627-0.206 0.529-0.138 1.053-0.344 1.571-0.619v1.381c-0.524 0.222-1.061 0.391-1.611 0.508-0.55 0.116-1.108 0.175-1.674 0.175-1.418 0-2.542-0.413-3.372-1.238-0.825-0.825-1.238-1.941-1.238-3.348 0-1.455 0.391-2.608 1.174-3.459 0.788-0.857 1.849-1.285 3.182-1.285 1.195 0 2.14 0.386 2.833 1.158 0.697 0.78 1.047 1.83 1.047 3.15zm-1.46-0.43c-0.011-0.799-0.235-1.436-0.674-1.912-0.434-0.476-1.01-0.714-1.73-0.714-0.815 0-1.468 0.23-1.96 0.69-0.487 0.46-0.767 1.108-0.841 1.944l5.205-0.01z"/>
		<path d="m64.165 903.84c-0.164-0.095-0.344-0.164-0.54-0.206-0.19-0.048-0.402-0.071-0.635-0.071-0.825 0-1.46 0.27-1.904 0.809-0.439 0.534-0.659 1.304-0.659 2.309v4.681h-1.467v-8.887h1.468v1.381c0.307-0.54 0.706-0.939 1.198-1.198 0.492-0.265 1.09-0.397 1.793-0.397 0.101 0 0.212 0.008 0.333 0.024 0.122 0.011 0.257 0.029 0.405 0.056l0.008 1.51z"/>
		<path d="m72.814 906v5.364h-1.46v-5.316c0-0.841-0.164-1.471-0.492-1.888-0.328-0.418-0.82-0.627-1.476-0.627-0.788 0-1.41 0.251-1.865 0.754s-0.682 1.188-0.682 2.055v5.023h-1.468v-8.887h1.468v1.381c0.349-0.534 0.759-0.934 1.23-1.198 0.476-0.265 1.024-0.397 1.642-0.397 1.021 0 1.793 0.317 2.317 0.952 0.524 0.66 0.786 1.59 0.786 2.82z"/>
		<path d="m79.781 906.89c-1.18 0-1.997 0.135-2.452 0.405s-0.682 0.73-0.682 1.381c0 0.518 0.169 0.931 0.508 1.238 0.344 0.302 0.809 0.452 1.396 0.452 0.809 0 1.457-0.286 1.944-0.857 0.492-0.577 0.738-1.341 0.738-2.293v-0.325h-1.452zm2.912-0.6v5.07h-1.46v-1.349c-0.333 0.54-0.748 0.939-1.246 1.198-0.497 0.254-1.106 0.381-1.825 0.381-0.91 0-1.635-0.254-2.174-0.762-0.534-0.513-0.801-1.198-0.801-2.055 0-1 0.333-1.754 1-2.261 0.672-0.508 1.672-0.762 2.999-0.762h2.047v-0.143c0-0.672-0.222-1.19-0.666-1.555-0.439-0.37-1.058-0.555-1.857-0.555-0.508 0-1.002 0.061-1.484 0.182-0.481 0.122-0.944 0.304-1.389 0.547v-1.349c0.534-0.206 1.053-0.36 1.555-0.46 0.503-0.106 0.992-0.159 1.468-0.159 1.285 0 2.245 0.333 2.88 1s0.953 1.68 0.953 3.03z"/>
		<path d="m87.152 899.95v2.523h3.007v1.135h-3.007v4.824c0 0.725 0.098 1.19 0.294 1.396 0.201 0.206 0.606 0.309 1.214 0.309h1.5v1.222h-1.5c-1.127 0-1.904-0.209-2.333-0.627-0.428-0.423-0.643-1.19-0.643-2.301v-4.824h-1.071v-1.135h1.071v-2.523c0 0.01 1.468 0.01 1.468 0.01z"/>
		<path d="m92.087 902.47h1.46v8.887h-1.46v-8.89zm0-3.46h1.46v1.849h-1.46v-1.85z"/>
		<path d="m100.04 903.5c-0.783 0-1.402 0.307-1.857 0.92-0.455 0.608-0.682 1.444-0.682 2.507s0.225 1.902 0.674 2.515c0.455 0.608 1.076 0.912 1.865 0.912 0.778 0 1.394-0.307 1.849-0.92 0.455-0.614 0.682-1.449 0.682-2.507 0-1.053-0.227-1.886-0.682-2.499-0.46-0.61-1.07-0.92-1.85-0.92zm0-1.24c1.27 0 2.267 0.413 2.991 1.238 0.725 0.825 1.087 1.968 1.087 3.428 0 1.455-0.362 2.597-1.087 3.428-0.725 0.825-1.722 1.238-2.991 1.238-1.275 0-2.275-0.413-2.999-1.238-0.719-0.831-1.079-1.973-1.079-3.428 0-1.46 0.36-2.603 1.079-3.428 0.722-0.83 1.722-1.24 2.999-1.24z"/>
		<path d="m113.92 906v5.364h-1.46v-5.316c0-0.841-0.164-1.471-0.492-1.888-0.328-0.418-0.82-0.627-1.476-0.627-0.788 0-1.41 0.251-1.865 0.754s-0.682 1.188-0.682 2.055v5.023h-1.468v-8.887h1.468v1.381c0.349-0.534 0.759-0.934 1.23-1.198 0.476-0.265 1.024-0.397 1.642-0.397 1.021 0 1.793 0.317 2.317 0.952 0.52 0.66 0.79 1.59 0.79 2.82z"/>
		<path d="m120.88 906.89c-1.18 0-1.997 0.135-2.452 0.405s-0.682 0.73-0.682 1.381c0 0.518 0.169 0.931 0.508 1.238 0.344 0.302 0.809 0.452 1.396 0.452 0.809 0 1.457-0.286 1.944-0.857 0.492-0.577 0.738-1.341 0.738-2.293v-0.325h-1.46zm2.91-0.6v5.07h-1.46v-1.349c-0.333 0.54-0.748 0.939-1.246 1.198-0.497 0.254-1.106 0.381-1.825 0.381-0.91 0-1.635-0.254-2.174-0.762-0.534-0.513-0.801-1.198-0.801-2.055 0-1 0.333-1.754 1-2.261 0.672-0.508 1.672-0.762 2.999-0.762h2.047v-0.143c0-0.672-0.222-1.19-0.667-1.555-0.439-0.37-1.058-0.555-1.857-0.555-0.508 0-1.002 0.061-1.484 0.182-0.481 0.122-0.944 0.304-1.389 0.547v-1.349c0.534-0.206 1.053-0.36 1.555-0.46 0.503-0.106 0.992-0.159 1.468-0.159 1.285 0 2.245 0.333 2.88 1s0.94 1.68 0.94 3.03z"/>
		<path d="m126.81 899.01h1.46v12.346h-1.46v-12.35z"/>
		<path d="m145.42 900.43v1.69c-0.54-0.503-1.116-0.878-1.73-1.127-0.608-0.249-1.256-0.373-1.944-0.373-1.354 0-2.391 0.415-3.11 1.246-0.719 0.825-1.079 2.021-1.079 3.586 0 1.56 0.36 2.756 1.079 3.586 0.719 0.825 1.756 1.238 3.11 1.238 0.688 0 1.336-0.124 1.944-0.373 0.614-0.249 1.19-0.624 1.73-1.127v1.674c-0.561 0.381-1.156 0.667-1.785 0.857-0.624 0.19-1.285 0.286-1.984 0.286-1.793 0-3.206-0.547-4.237-1.642-1.031-1.1-1.547-2.6-1.547-4.499 0-1.904 0.516-3.404 1.547-4.499 1.031-1.1 2.444-1.65 4.237-1.65 0.709 0 1.375 0.095 2 0.286 0.62 0.16 1.21 0.44 1.76 0.82z"/>
		<path d="m153 903.84c-0.164-0.095-0.344-0.164-0.54-0.206-0.19-0.048-0.402-0.071-0.635-0.071-0.825 0-1.46 0.27-1.904 0.809-0.439 0.534-0.659 1.304-0.659 2.309v4.681h-1.468v-8.887h1.468v1.381c0.307-0.54 0.706-0.939 1.198-1.198 0.492-0.265 1.09-0.397 1.793-0.397 0.101 0 0.212 0.008 0.333 0.024 0.122 0.011 0.257 0.029 0.405 0.056l0.02 1.51z"/>
		<path d="m161.8 906.55v0.714h-6.713c0.063 1.005 0.365 1.772 0.905 2.301 0.545 0.524 1.301 0.786 2.269 0.786 0.561 0 1.103-0.069 1.627-0.206 0.529-0.138 1.053-0.344 1.571-0.619v1.381c-0.524 0.222-1.061 0.391-1.611 0.508-0.55 0.116-1.108 0.175-1.674 0.175-1.418 0-2.542-0.413-3.372-1.238-0.825-0.825-1.238-1.941-1.238-3.348 0-1.455 0.391-2.608 1.174-3.459 0.788-0.857 1.849-1.285 3.182-1.285 1.195 0 2.14 0.386 2.833 1.158 0.69 0.78 1.04 1.83 1.04 3.15zm-1.46-0.43c-0.011-0.799-0.235-1.436-0.674-1.912-0.434-0.476-1.01-0.714-1.73-0.714-0.815 0-1.468 0.23-1.96 0.69-0.487 0.46-0.767 1.108-0.841 1.944l5.2-0.01z"/>
		<path d="m170.04 903.82v-4.808h1.46v12.346h-1.46v-1.333c-0.307 0.529-0.696 0.923-1.166 1.182-0.465 0.254-1.026 0.381-1.682 0.381-1.074 0-1.949-0.428-2.626-1.285-0.672-0.857-1.008-1.984-1.008-3.38s0.336-2.523 1.008-3.38c0.677-0.857 1.553-1.285 2.626-1.285 0.656 0 1.217 0.13 1.682 0.389 0.48 0.25 0.87 0.64 1.17 1.17zm-4.97 3.1c0 1.074 0.22 1.918 0.659 2.531 0.444 0.608 1.053 0.912 1.825 0.912s1.381-0.304 1.825-0.912c0.444-0.614 0.667-1.457 0.667-2.531s-0.222-1.915-0.667-2.523c-0.444-0.614-1.053-0.92-1.825-0.92s-1.381 0.307-1.825 0.92c-0.45 0.61-0.67 1.45-0.67 2.52z"/>
		<path d="m174.51 902.47h1.46v8.887h-1.46v-8.89zm0-3.46h1.46v1.849h-1.46v-1.85z"/>
		<path d="m180.46 899.95v2.523h3.007v1.135h-3.007v4.824c0 0.725 0.098 1.19 0.294 1.396 0.201 0.206 0.606 0.309 1.214 0.309h1.5v1.222h-1.5c-1.127 0-1.904-0.209-2.333-0.627-0.428-0.423-0.643-1.19-0.643-2.301v-4.824h-1.071v-1.135h1.071v-2.523h1.47z"/>
		<path d="m199.5 900.43v1.69c-0.54-0.503-1.116-0.878-1.73-1.127-0.608-0.249-1.256-0.373-1.944-0.373-1.354 0-2.391 0.415-3.11 1.246-0.719 0.825-1.079 2.021-1.079 3.586 0 1.56 0.36 2.756 1.079 3.586 0.719 0.825 1.756 1.238 3.11 1.238 0.688 0 1.336-0.124 1.944-0.373 0.614-0.249 1.19-0.624 1.73-1.127v1.674c-0.561 0.381-1.156 0.667-1.785 0.857-0.624 0.19-1.285 0.286-1.984 0.286-1.793 0-3.206-0.547-4.237-1.642-1.031-1.1-1.547-2.6-1.547-4.499 0-1.904 0.516-3.404 1.547-4.499 1.031-1.1 2.444-1.65 4.237-1.65 0.709 0 1.375 0.095 2 0.286 0.62 0.16 1.22 0.44 1.76 0.82z"/>
		<path d="m205.97 906.89c-1.18 0-1.997 0.135-2.452 0.405s-0.682 0.73-0.682 1.381c0 0.518 0.169 0.931 0.508 1.238 0.344 0.302 0.809 0.452 1.396 0.452 0.809 0 1.457-0.286 1.944-0.857 0.492-0.577 0.738-1.341 0.738-2.293v-0.325h-1.46zm2.91-0.6v5.07h-1.46v-1.349c-0.333 0.54-0.748 0.939-1.246 1.198-0.497 0.254-1.106 0.381-1.825 0.381-0.91 0-1.635-0.254-2.174-0.762-0.534-0.513-0.801-1.198-0.801-2.055 0-1 0.333-1.754 1-2.261 0.672-0.508 1.672-0.762 2.999-0.762h2.047v-0.143c0-0.672-0.222-1.19-0.667-1.555-0.439-0.37-1.058-0.555-1.857-0.555-0.508 0-1.002 0.061-1.484 0.182-0.481 0.122-0.944 0.304-1.389 0.547v-1.349c0.534-0.206 1.053-0.36 1.555-0.46 0.503-0.106 0.992-0.159 1.468-0.159 1.285 0 2.245 0.333 2.88 1s0.95 1.68 0.95 3.03z"/>
		<path d="m217.05 903.84c-0.164-0.095-0.344-0.164-0.54-0.206-0.19-0.048-0.402-0.071-0.635-0.071-0.825 0-1.46 0.27-1.904 0.809-0.439 0.534-0.659 1.304-0.659 2.309v4.681h-1.468v-8.887h1.468v1.381c0.307-0.54 0.706-0.939 1.198-1.198 0.492-0.265 1.09-0.397 1.793-0.397 0.101 0 0.212 0.008 0.333 0.024 0.122 0.011 0.257 0.029 0.405 0.056l0.01 1.51z"/>
		<path d="m224.16 903.82v-4.808h1.46v12.346h-1.46v-1.333c-0.307 0.529-0.696 0.923-1.166 1.182-0.466 0.254-1.026 0.381-1.682 0.381-1.074 0-1.949-0.428-2.626-1.285-0.672-0.857-1.008-1.984-1.008-3.38s0.336-2.523 1.008-3.38c0.677-0.857 1.553-1.285 2.626-1.285 0.656 0 1.217 0.13 1.682 0.389 0.47 0.25 0.86 0.64 1.17 1.17zm-4.98 3.1c0 1.074 0.22 1.918 0.659 2.531 0.444 0.608 1.053 0.912 1.825 0.912s1.381-0.304 1.825-0.912c0.444-0.614 0.667-1.457 0.667-2.531s-0.222-1.915-0.667-2.523c-0.444-0.614-1.053-0.92-1.825-0.92s-1.381 0.307-1.825 0.92c-0.44 0.61-0.66 1.45-0.66 2.52z"/>
	</g>
</g>
</svg>
