<?xml version="1.0" encoding="UTF-8" standalone="no"?>
<!-- Generator: Adobe Illustrator 19.0.0, SVG Export Plug-In . SVG Version: 6.00 Build 0)  -->
<svg id="Layer_1" style="enable-background:new 0 0 512 512" xmlns="http://www.w3.org/2000/svg" xml:space="preserve" viewBox="0 0 512 512" version="1.1" y="0px" x="0px" xmlns:xlink="http://www.w3.org/1999/xlink">
<path d="m512 402.28c0 16.716-13.55 30.267-30.265 30.267h-451.48c-16.71 0-30.26-13.55-30.26-30.27v-292.56c0-16.716 13.55-30.266 30.265-30.266h451.47c16.716 0 30.265 13.551 30.265 30.266v292.56z" fill="#E7E8E3"/>
<rect y="148.14" width="512" fill="#34495E" height="72.014"/>
<rect y="220.16" width="512" fill="#fff" height="44.555"/>
<path opacity=".15" style="enable-background:new" d="m21.517 402.28v-292.56c0-16.716 13.552-30.266 30.267-30.266h-21.52c-16.714-0.003-30.264 13.549-30.264 30.266v292.56c0 16.716 13.55 30.267 30.265 30.267h21.52c-16.715 0-30.268-13.55-30.268-30.27z" fill="#202121"/>
<path d="m374.96 348.19c0-15.018 6.92-28.418 17.742-37.193-8.227-6.669-18.705-10.669-30.12-10.669-26.433 0-47.861 21.428-47.861 47.862s21.428 47.862 47.861 47.862c11.415 0 21.894-3.999 30.12-10.669-10.82-8.77-17.74-22.17-17.74-37.19z" fill="#EA001B"/>
<path d="m422.82 300.33c-11.415 0-21.894 3.999-30.119 10.669 10.824 8.775 17.741 22.175 17.741 37.193s-6.918 28.418-17.741 37.193c8.227 6.669 18.705 10.669 30.119 10.669 26.435 0 47.863-21.428 47.863-47.862 0-26.43-21.43-47.86-47.86-47.86z" fill="#F79F1A"/>
<path d="m410.44 348.19c0-15.018-6.918-28.418-17.741-37.193-10.822 8.775-17.742 22.175-17.742 37.193s6.92 28.418 17.742 37.193c10.82-8.77 17.74-22.17 17.74-37.19z" fill="#FF5F01"/>
<g fill="#fff">
	<path d="m160.06 322.72h-104.62c-4.611 0-8.348-3.736-8.348-8.348 0-4.611 3.736-8.348 8.348-8.348h104.63c4.611 0 8.348 3.736 8.348 8.348s-3.75 8.35-8.36 8.35z"/>
	<path d="m160.06 357.42h-104.62c-4.611 0-8.348-3.736-8.348-8.348s3.736-8.348 8.348-8.348h104.63c4.611 0 8.348 3.736 8.348 8.348s-3.75 8.35-8.36 8.35z"/>
	<path d="m160.06 392.12h-104.62c-4.611 0-8.348-3.736-8.348-8.348 0-4.611 3.736-8.348 8.348-8.348h104.63c4.611 0 8.348 3.736 8.348 8.348-0.01 4.61-3.75 8.35-8.36 8.35z"/>
</g>
</svg>
