<?xml version="1.0" encoding="UTF-8" standalone="no"?>
<svg xmlns="http://www.w3.org/2000/svg" height="118px" width="119px" version="1.1" xmlns:xlink="http://www.w3.org/1999/xlink" viewBox="0 0 119 118"><!-- Generator: Sketch 44.1 (41455) - http://www.bohemiancoding.com/sketch -->
 <title>bao-ve-nguoi-mua</title>
 <desc>Created with Sketch.</desc>
 <g id="Page-1" fill-rule="evenodd" fill="none">
  <g id="bao-ve-nguoi-mua">
   <g id="Group" fill="#417505" fill-rule="nonzero">
    <path id="Shape" d="m19.2 16.618c12.16-11.104 28.53-16.608 45.046-15.145l0.369-0.3821c-1.052-0.10908-2.16-0.27272-3.286-0.27272-15.671-0.59964-30.941 4.9621-42.445 15.46-11.504 10.497-18.298 25.069-18.884 40.504v3.309l0.42462-0.382c-0.22288-16.335 6.6009-31.995 18.775-43.091z"/>
    <path id="Shape" d="m102.11 19.727c2.91 3.11 5.46 6.524 7.61 10.182l0.31-0.291c-5.25-8.814-12.748-16.128-21.747-21.218l-0.332 0.3091c5.27 2.9289 10.047 6.6459 14.159 11.018z"/>
    <path id="Shape" d="m117.66 51.436l-0.41 0.364c3.61 28.206-14.16 54.8-41.886 62.71-27.728 7.9-57.173-5.24-69.419-30.983l-0.4065 0.291c11.528 24.422 38.57 37.862 65.366 32.482 26.798-5.38 46.346-28.164 47.246-55.082 0.11-3.268-0.05-6.54-0.49-9.782z"/>
    <path id="Shape" d="m16.431 35.982c7.016-12.601 19.408-21.432 33.755-24.057 14.346-2.6254 29.132 1.233 40.276 10.511l0.258-0.291c-20.173-16.816-50.25-14.853-67.994 4.437-2.628 2.852-4.902 6.001-6.775 9.382l0.48 0.018z"/>
    <path id="Shape" d="m25.237 93.4c-10.181-9.673-15.573-23.236-14.769-37.145h-0.333c-0.091 1.714-0.091 3.431 0 5.145 0.557 12.226 5.841 23.779 14.77 32.291l0.332-0.291z"/>
    <path id="Shape" d="m101.7 35.982h0.48c-0.49-0.897-1.01-1.776-1.56-2.637l-0.28 0.31c0.48 0.763 0.93 1.539 1.36 2.327z"/>
    <path id="Shape" d="m108.04 56.618v-0.382h-0.41c1.03 17.035-7.23 33.32-21.679 42.741-14.448 9.423-32.896 10.553-48.419 2.973l-0.277 0.3c15.586 7.63 34.106 6.54 48.665-2.845 14.56-9.387 22.98-25.67 22.12-42.787z"/>
    <path id="Shape" d="m78.923 106.98c0.72-0.29 1.44-0.6 2.142-0.93l-0.167-0.34c-0.701 0.33-1.403 0.64-2.123 0.93l0.148 0.34z"/>
    <path id="Shape" d="m17.649 91.855l0.296-0.237c-0.48-0.582-0.96-1.182-1.422-1.818l-0.314 0.236c0.406 0.619 0.942 1.237 1.44 1.819z"/>
    <path id="Shape" d="m14.769 88.091l0.314-0.218c-0.425-0.618-0.849-1.273-1.255-1.909l-0.24 0.309c0.406 0.636 0.83 1.272 1.181 1.818z"/>
    <path id="Shape" d="m7.92 73.691c0.2215 0.727 0.4615 1.473 0.7015 2.2l0.3693-0.127c-0.24-0.709-0.48-1.455-0.7016-2.182l-0.3692 0.109z"/>
    <path id="Shape" d="m22.412 96.891c0.573 0.527 1.145 1.036 1.736 1.527l0.258-0.291c-0.591-0.491-1.163-1-1.717-1.527l-0.277 0.291z"/>
    <path id="Shape" d="m12.425 84.273l0.332-0.182c-0.369-0.655-0.739-1.346-1.089-2.018l-0.351 0.163c0.351 0.691 0.72 1.364 1.108 2.037z"/>
    <path id="Shape" d="m10.338 80.164l0.351-0.164c-0.314-0.691-0.609-1.4-0.8859-2.109l-0.3693 0.145c0.277 0.709 0.5912 1.437 0.9042 2.128z"/>
    <path id="Shape" d="m74.529 108.56c0.739-0.23 1.477-0.47 2.216-0.74l-0.13-0.37-2.197 0.73 0.111 0.38z"/>
    <polygon id="Shape" points="65.428 110.55 67.735 110.2 67.735 109.82 65.446 110.16"/>
    <polygon id="Shape" points="70.025 109.75 72.295 109.2 72.203 108.84 69.951 109.38"/>
    <path id="Shape" d="m27.822 101.27l0.221-0.31c-0.628-0.43-1.255-0.91-1.846-1.36l-0.24 0.309c0.609 0.451 1.237 0.911 1.865 1.361z"/>
    <path id="Shape" d="m31.735 103.78l0.203-0.33c-0.664-0.38-1.329-0.78-1.975-1.2l-0.203 0.33c0.628 0.4 1.311 0.8 1.975 1.2z"/>
    <polygon id="Shape" points="37.975 106.89 39.637 107.55 39.637 107.11 38.178 106.53"/>
    <path id="Shape" d="m35.852 105.95l0.166-0.35c-0.701-0.33-1.384-0.67-2.067-1.04l-0.185 0.35c0.683 0.36 1.311 0.71 2.086 1.04z"/>
    <path id="Shape" d="m20.751 95.364l0.277-0.273c-0.536-0.546-1.071-1.109-1.588-1.673l-0.295 0.255c0.535 0.509 1.07 1.072 1.606 1.691z"/>
    <path id="Shape" d="m17.778 26.055c-0.498 0.581-0.978 1.2-1.44 1.818l0.277 0.218c0.462-0.6 0.942-1.2 1.422-1.818l-0.259-0.218z"/>
    <path id="Shape" d="m24.554 19.782l-0.259-0.291c-0.59 0.491-1.163 1.018-1.735 1.527l0.258 0.273c0.573-0.473 1.182-1.018 1.736-1.509z"/>
    <path id="Shape" d="m20.898 22.636c-0.535 0.546-1.07 1.109-1.587 1.673l0.295 0.255c0.517-0.564 1.052-1.128 1.588-1.673l-0.296-0.255z"/>
    <polygon id="Shape" points="27.692 16.909 26.16 18.036 26.4 18.345 27.692 17.345"/>
    <polygon id="Shape" points="49.311 7.8727 47.243 8.2727 47.243 8.6545 49.329 8.2545"/>
    <polygon id="Shape" points="60.923 110.95 63.194 110.8 63.194 110.42 60.905 110.56"/>
    <path id="Shape" d="m14.972 29.727c-0.443 0.637-0.867 1.273-1.274 1.928l0.333 0.2c0.406-0.637 0.831-1.291 1.274-1.91l-0.333-0.218z"/>
    <path id="Shape" d="m12.517 33.545c-0.388 0.673-0.757 1.346-1.089 2.037l0.35 0.163c0.351-0.672 0.72-1.363 1.09-2.018l-0.351-0.182z"/>
    <path id="Shape" d="m7.2185 48.745c0.1477-0.745 0.3323-1.49 0.5169-2.236l-0.3508-0.073c-0.1846 0.746-0.3692 1.491-0.5169 2.255l0.3508 0.054z"/>
    <path id="Shape" d="m10.763 37.891l-0.351-0.164c-0.314 0.691-0.6274 1.418-0.9043 2.128l0.3692 0.145c0.2581-0.709 0.5721-1.418 0.8861-2.109z"/>
    <path id="Shape" d="m8.6769 42.018c-0.2584 0.727-0.4984 1.455-0.72 2.2l0.3693 0.109c0.2215-0.727 0.4615-1.454 0.72-2.182l-0.3693-0.127z"/>
    <path id="Shape" d="m108.76 73.782l0.37 0.109c0.22-0.727 0.42-1.473 0.62-2.218l-0.37-0.091c-0.2 0.745-0.46 1.473-0.62 2.2z"/>
    <path id="Shape" d="m105.8 35.855l-0.35 0.163c0.35 0.673 0.69 1.382 0.98 2.073l0.35-0.146c-0.29-0.763-0.64-1.4-0.98-2.09z"/>
    <path id="Shape" d="m97.975 24.455l-0.295 0.254c0.517 0.564 1.015 1.146 1.495 1.818l0.296-0.236c-0.462-0.636-0.979-1.236-1.496-1.836z"/>
    <path id="Shape" d="m83.077 105.02c0.683-0.35 1.366-0.73 2.031-1.11l-0.185-0.33c-0.665 0.38-1.348 0.75-2.012 1.11l0.166 0.33z"/>
    <path id="Shape" d="m102.28 29.909c-0.43-0.636-0.89-1.254-1.35-1.818l-0.31 0.236c0.46 0.6 0.9 1.237 1.34 1.818l0.32-0.236z"/>
    <polygon id="Shape" points="58.708 7.0545 56.382 7.0545 56.382 7.4364 58.689 7.4364"/>
    <polygon id="Shape" points="54.074 7.6364 54.074 7.2545 51.692 7.4909 51.692 7.4909 51.692 7.8727 51.692 7.8727"/>
    <polygon id="Shape" points="61.034 7.1091 61.034 7.4909 63.342 7.6545 63.342 7.2727"/>
    <polygon id="Shape" points="77.003 10.327 74.788 9.5636 74.658 9.9273 76.855 10.673"/>
    <polygon id="Shape" points="72.554 8.9091 70.283 8.3455 70.283 8.7273 72.535 9.2909"/>
    <polygon id="Shape" points="67.994 7.8909 65.686 7.5273 65.686 7.9091 67.975 8.2727"/>
    <path id="Shape" d="m103.53 31.855l-0.33 0.2c0.41 0.636 0.79 1.309 1.16 1.963l0.34-0.182c-0.36-0.672-0.76-1.345-1.17-1.981z"/>
    <path id="Shape" d="m97.846 93.782c0.517-0.564 1.034-1.146 1.514-1.818l-0.369-0.237c-0.48 0.582-0.997 1.164-1.514 1.818l0.369 0.237z"/>
    <path id="Shape" d="m100.73 90.236c0.46-0.618 0.92-1.236 1.36-1.818l-0.31-0.327c-0.44 0.618-0.89 1.254-1.35 1.818l0.3 0.327z"/>
    <path id="Shape" d="m103.38 86.455c0.41-0.655 0.82-1.31 1.19-1.982l-0.34-0.182c-0.37 0.654-0.77 1.327-1.18 1.964l0.33 0.2z"/>
    <path id="Shape" d="m87.157 102.64c0.646-0.42 1.292-0.86 1.846-1.29l-0.221-0.31c-0.628 0.43-1.274 0.87-1.847 1.27l0.222 0.33z"/>
    <path id="Shape" d="m105.66 82.436c0.35-0.672 0.68-1.381 1.01-2.072l-0.35-0.164c-0.31 0.691-0.65 1.382-1 2.055l0.34 0.181z"/>
    <path id="Shape" d="m90.96 100.05c0.609-0.468 1.218-0.959 1.846-1.45l-0.258-0.291c-0.591 0.491-1.182 0.982-1.846 1.436l0.258 0.305z"/>
    <path id="Shape" d="m94.505 97.073c0.572-0.528 1.126-1.055 1.661-1.6l-0.277-0.273c-0.535 0.545-1.089 1.073-1.661 1.6l0.277 0.273z"/>
    <path id="Shape" d="m110.33 51.2h0.38c-0.11-0.764-0.25-1.527-0.4-2.273h-0.39c0.15 0.764 0.28 1.528 0.41 2.273z"/>
    <path id="Shape" d="m108.41 76.091l-0.37-0.127c-0.26 0.709-0.54 1.436-0.82 2.145l0.37 0.146c0.28-0.71 0.56-1.437 0.82-2.164z"/>
    <path id="Shape" d="m107.69 40.055l-0.37 0.145c0.27 0.709 0.55 1.418 0.79 2.145l0.37-0.127c-0.24-0.727-0.52-1.4-0.79-2.163z"/>
    <path id="Shape" d="m109.2 44.455l-0.37 0.109c0.22 0.727 0.43 1.472 0.59 2.2h0.37c-0.18-0.873-0.39-1.619-0.59-2.309z"/>
    <path id="Shape" d="m110.77 55.727h0.39c0-0.763-0.11-1.527-0.21-2.291h-0.38c0.2 0.782 0.2 1.546 0.2 2.291z"/>
    <path id="Shape" d="m109.88 69.345h0.39c0.15-0.745 0.3-1.509 0.43-2.254h-0.39c-0.13 0.764-0.28 1.527-0.43 2.254z"/>
    <path id="Shape" d="m111.19 62.636h-0.42c0 0.764-0.13 1.528-0.2 2.273h0.38c0.13-0.782 0.21-1.545 0.24-2.273z"/>
    <path id="Shape" d="m110.92 60.291h0.38v-2.291h-0.38c0.02 0.764 0.02 1.545 0 2.291z"/>
    <ellipse id="Oval" cy="83.8" cx="66.997" rx="1.7354" ry="1.7091"/>
    <path id="Shape" d="m61.569 101.89c23.81-0.67 42.661-20.048 42.321-43.504-0.34-23.457-19.747-42.296-43.567-42.296s-43.224 18.839-43.565 42.296c-0.34 23.456 18.509 42.834 42.319 43.504 0.831 0.07 1.661 0.06 2.492 0z"/>
    <ellipse id="Oval" cy="83.8" cx="55.218" rx="1.7354" ry="1.7091"/>
   </g>
   <g id="ICON-FEATURE_security-compliance" transform="translate(37 32)">
    <path id="Shape" fill-rule="nonzero" fill="#fff" d="m34.997 6.122c-0.908 0.0446-1.814 0.0835-2.718 0.1169l-6.499-4.9254c-1.991-1.6234-4.861-1.6651-6.9-0.1002l-7.013 5.0423c-0.904-0.0334-1.81-0.0723-2.7178-0.1169-5.1256-0.2504-9.1492-1.6863-9.1492 5.2543 0 6.94 0.95504 18.193 0.95504 18.193s-0.56511 8.443 9.33 15.584c8.516 6.122 11.743 8.348 11.743 8.348s3.289-2.226 11.811-8.348c9.901-7.13 9.33-15.584 9.33-15.584s0.955-11.253 0.955-18.193c0-6.9406-4.001-5.5047-9.127-5.271"/>
    <path id="Shape" stroke-linejoin="round" d="m27.125 12.389c-6.593-2.6153-14.119 0.203-17.283 6.471-3.1638 6.269-0.9008 13.879 5.197 17.477 6.097 3.597 13.978 1.972 18.097-3.733 4.12-5.705 3.092-13.57-2.36-18.061v0l-10.737 15.989-5.77-7.552" stroke="#D0011B" stroke-linecap="round" stroke-width="2.5"/>
   </g>
  </g>
 </g>
</svg>
