<?xml version="1.0" encoding="UTF-8" standalone="no"?>
<!-- Generator: Adobe Illustrator 21.0.2, SVG Export Plug-In . SVG Version: 6.00 Build 0)  -->
<svg id="Layer_1" style="enable-background:new 0 0 70 52" xmlns="http://www.w3.org/2000/svg" xml:space="preserve" viewBox="0 0 70 52" version="1.1" y="0px" x="0px" xmlns:xlink="http://www.w3.org/1999/xlink">
<style type="text/css">
	.st0{fill:#CBCBCB;}
</style>
		<path class="st0" d="m60.1 39.4h-35.4c-1 0-1.9-0.6-2.2-1.6l-10.9-31.4c-0.3-0.9-1.2-1.5-2.1-1.6l-7.2-0.2c-1.3 0-2.3-1-2.3-2.3s1.1-2.3 2.4-2.3l10.4 0.2c1 0 1.8 0.6 2.1 1.6l10.8 31.4c0.3 0.9 1.2 1.6 2.2 1.6h32.1c1.3 0 2.3 1 2.3 2.3 0.1 1.3-1 2.3-2.2 2.3z"/>
	<path class="st0" d="m22.9 9.9l6.5 19.1c0.3 1 1.2 1.7 2.2 1.7h32.3c1.1 0 2.1-0.8 2.3-1.9l3.8-19.1c0.3-1.4-0.8-2.8-2.3-2.8h-42.6c-1.5 0-2.6 1.5-2.2 3z"/>
	<circle cy="47.5" cx="54.7" r="4.6" class="st0"/>
	<circle cy="47.5" cx="31.1" r="4.6" class="st0"/>
</svg>
