<?xml version="1.0" encoding="UTF-8" standalone="no"?>
<svg xmlns="http://www.w3.org/2000/svg" height="474px" width="512px" version="1.1" xmlns:xlink="http://www.w3.org/1999/xlink" viewBox="0 0 512 474"><!-- Generator: Sketch 44.1 (41455) - http://www.bohemiancoding.com/sketch -->
 <title>cart</title>
 <desc>Created with Sketch.</desc>
 <g id="Page-1" fill-rule="evenodd" fill="none">
  <g id="cart" fill="#fff" fill-rule="nonzero">
   <path id="Shape" d="m214.68 383.83c-24.82 0-45.02 20.2-45.02 45.03s20.2 45.03 45.02 45.03c24.83 0 45.03-20.2 45.03-45.03s-20.2-45.03-45.03-45.03zm0 64.91c-10.96 0-19.88-8.92-19.88-19.88 0-10.97 8.92-19.89 19.88-19.89 10.97 0 19.89 8.92 19.89 19.89 0 10.96-8.92 19.88-19.89 19.88z"/>
   <path id="Shape" d="m372.63 383.83c-24.83 0-45.03 20.2-45.03 45.03s20.2 45.03 45.03 45.03 45.03-20.2 45.03-45.03-20.2-45.03-45.03-45.03zm0 64.91c-10.97 0-19.89-8.92-19.89-19.88 0-10.97 8.92-19.89 19.89-19.89s19.89 8.92 19.89 19.89c0 10.96-8.92 19.88-19.89 19.88z"/>
   <path id="Shape" d="m383.72 146.76h-180.15c-6.95 0-12.57 5.62-12.57 12.57 0 6.94 5.62 12.57 12.57 12.57h180.15c6.94 0 12.57-5.63 12.57-12.57 0-6.95-5.63-12.57-12.57-12.57z"/>
   <path id="Shape" d="m373.91 212.04h-160.54c-6.94 0-12.57 5.62-12.57 12.57 0 6.94 5.63 12.57 12.57 12.57h160.54c6.94 0 12.57-5.63 12.57-12.57 0-6.95-5.63-12.57-12.57-12.57z"/>
   <path id="Shape" d="m506.34 90.744c-4.79-5.884-11.9-9.258-19.49-9.258h-391.57l-7.91-38.389c-1.651-8.008-7.113-14.732-14.614-17.989l-55.177-23.95c-6.37-2.767-13.773 0.156-16.536 6.524-2.766 6.37 0.157 13.774 6.524 16.537l55.178 23.951 60.825 295.26c2.4 11.63 12.75 20.07 24.63 20.07h301.16c6.94 0 12.57-5.63 12.57-12.57 0-6.95-5.63-12.57-12.57-12.57h-301.16l-7.4-35.92h310.89c11.87 0 22.23-8.44 24.62-20.07l35.17-170.67c1.53-7.43-0.34-15.073-5.14-20.956zm-54.65 186.56h-316.07l-35.16-170.67h386.39l-35.16 170.67z"/>
  </g>
 </g>
</svg>
