<?xml version="1.0" encoding="UTF-8" standalone="no"?>
<!DOCTYPE svg  PUBLIC '-//W3C//DTD SVG 1.1//EN'  'http://www.w3.org/Graphics/SVG/1.1/DTD/svg11.dtd'>
<svg style="enable-background:new 0 0 512 512" xmlns="http://www.w3.org/2000/svg" xml:space="preserve" height="512px" width="512px" version="1.1" xmlns:xlink="http://www.w3.org/1999/xlink" viewBox="0 0 512 512"><g id="形状_2_7_" style="enable-background:new"><g id="形状_2"><path fill-rule="evenodd" clip-rule="evenodd" d="m84.474 205.04c-34.305 0.935-58.475 18.711-58.475 55.198 0 16.841 5.458 30.874 15.594 40.232 10.915 9.354 25.729 13.098 43.661 13.098 14.814 0 27.288-2.807 36.645-8.422 9.355-6.549 14.813-14.034 16.373-24.325h-22.61c-5.458 13.101-17.932 17.776-29.627 17.776-21.831 0-35.084-12.161-36.644-33.68h92.78c1.56-38.36-18.71-59.88-57.696-59.88zm-34.305 44.91c1.559-19.647 17.932-29.938 34.305-29.938 19.492 0.935 31.187 9.356 33.526 29.938h-67.831z" fill="#ED4E2E"/></g></g><g id="形状_2_6_" style="enable-background:new"><g id="形状_2_1_"><path fill-rule="evenodd" clip-rule="evenodd" d="m245.86 220.01c-11.695-12.163-25.729-14.969-42.102-14.969-15.593 0-30.407 7.484-38.204 17.776v-58.009h-23.39v124.44l-0.78 20.582h22.61l0.78-14.034c9.355 10.292 21.051 16.841 36.644 17.777 16.374 0.936 30.407-2.807 42.103-12.164 10.915-10.292 17.931-23.389 17.931-42.102 0.01-14.98-5.45-29.02-15.59-39.31zm-19.49 68.3c-7.796 6.549-16.373 10.291-26.508 10.291-24.169-0.937-34.305-18.71-35.084-40.229-0.78-20.584 15.593-38.36 35.865-38.36 10.135 0 18.711 3.742 25.728 10.291 7.017 6.55 10.916 14.969 10.916 28.069 0 14.04-3.9 23.39-10.92 29.94z" fill="#004991"/></g></g><g id="形状_2_5_" style="enable-background:new"><g id="形状_2_2_"><path fill-rule="evenodd" clip-rule="evenodd" d="m369.05 267.73v-23.39c0-29.939-21.83-38.359-49.898-39.294-10.135 0-19.491 0.935-27.288 3.742-15.593 4.676-22.61 12.161-24.948 27.131h24.169c1.56-11.228 11.695-15.904 26.508-15.904s28.069 6.55 28.069 20.584v5.612c-7.797 0-20.272 0-36.645 0.936-15.594 0.936-35.864 3.743-45.221 17.777-3.119 3.742-5.457 12.161-4.678 17.776 2.338 23.389 24.949 30.874 43.661 30.874 17.152 0 32.745-2.807 44.44-17.777 0.779 4.68 0 8.422 0.779 14.034h21.831c-1.56-7.49-0.78-37.42-0.78-42.1zm-27.29 14.97c-8.576 16.84-37.424 22.452-52.237 10.291-10.135-7.485-8.576-23.392 4.679-27.132 14.813-4.679 35.864-4.679 51.458-3.742 0 7.48 0 13.09-3.9 20.58z" fill="#FCB900"/></g></g><g id="形状_2_4_" style="enable-background:new"><g id="形状_2_3_"><polygon fill-rule="evenodd" points="461.83 208.79 422.85 288.31 383.08 208.79 355.8 208.79 409.59 309.83 389.32 348.19 415.05 348.19 486 208.79" clip-rule="evenodd" fill="#1FB33E"/></g></g></svg>
