<?xml version="1.0" encoding="UTF-8" standalone="no"?>
<svg xmlns="http://www.w3.org/2000/svg" height="416px" width="472px" version="1.1" xmlns:xlink="http://www.w3.org/1999/xlink" viewBox="0 0 472 416"><!-- Generator: Sketch 44.1 (41455) - http://www.bohemiancoding.com/sketch -->
 <title>favorite</title>
 <desc>Created with Sketch.</desc>
 <g id="Page-1" fill-rule="evenodd" fill="none">
  <g id="favorite" fill="#00A6F0" fill-rule="nonzero">
   <path id="Shape" d="m433.6 39.001c-24.7-24.7-57.4-38.2-92.3-38.2s-67.7 13.6-92.4 38.3l-12.9 12.9-13.1-13.1c-24.7-24.7-57.6-38.4-92.5-38.4-34.799 0-67.599 13.6-92.199 38.2-24.7 24.7-38.3 57.5-38.2 92.399 0 34.9 13.7 67.6 38.4 92.3l187.8 187.8c2.6 2.6 6.1 4 9.5 4s6.9-1.3 9.5-3.9l188.2-187.5c24.7-24.7 38.3-57.5 38.3-92.4 0.1-34.899-13.4-67.699-38.1-92.399zm-19.2 165.7l-178.7 178-178.3-178.3c-19.599-19.6-30.399-45.6-30.399-73.3s10.7-53.699 30.3-73.199c19.5-19.5 45.499-30.3 73.099-30.3 27.7 0 53.8 10.8 73.4 30.4l22.6 22.6c5.3 5.3 13.8 5.3 19.1 0l22.4-22.4c19.6-19.6 45.7-30.4 73.3-30.4s53.6 10.8 73.2 30.3c19.6 19.6 30.3 45.599 30.3 73.299 0.1 27.7-10.7 53.7-30.3 73.3z"/>
  </g>
 </g>
</svg>
