<?xml version="1.0" encoding="UTF-8" standalone="no"?>
<svg xmlns="http://www.w3.org/2000/svg" height="118px" width="119px" version="1.1" xmlns:xlink="http://www.w3.org/1999/xlink" viewBox="0 0 119 118"><!-- Generator: Sketch 44.1 (41455) - http://www.bohemiancoding.com/sketch -->
 <title>icon-1</title>
 <desc>Created with Sketch.</desc>
 <g id="Page-1" fill-rule="evenodd" fill="none">
  <g id="icon-1" fill-rule="nonzero" transform="translate(0 -1)">
   <g id="Group" fill="#710ACA">
    <path id="Shape" d="m19.2 17.618c12.16-11.104 28.53-16.608 45.046-15.145l0.369-0.3821c-1.052-0.1091-2.16-0.2727-3.286-0.2727-15.671-0.5997-30.941 4.9621-42.445 15.46-11.504 10.497-18.298 25.069-18.884 40.504v3.309l0.42462-0.382c-0.22288-16.335 6.6009-31.995 18.775-43.091z"/>
    <path id="Shape" d="m102.11 20.727c2.91 3.11 5.46 6.524 7.61 10.182l0.31-0.291c-5.25-8.814-12.748-16.128-21.747-21.218l-0.332 0.3091c5.27 2.9289 10.047 6.6459 14.159 11.018z"/>
    <path id="Shape" d="m117.66 52.436l-0.41 0.364c3.61 28.206-14.16 54.8-41.886 62.71-27.728 7.9-57.173-5.24-69.419-30.983l-0.4065 0.291c11.528 24.422 38.57 37.862 65.366 32.482 26.798-5.38 46.346-28.164 47.246-55.082 0.11-3.268-0.05-6.54-0.49-9.782z"/>
    <path id="Shape" d="m16.431 36.982c7.016-12.601 19.408-21.432 33.755-24.057 14.346-2.625 29.132 1.233 40.276 10.511l0.258-0.291c-20.173-16.816-50.25-14.853-67.994 4.437-2.628 2.852-4.902 6.001-6.775 9.382l0.48 0.018z"/>
    <path id="Shape" d="m25.237 94.4c-10.181-9.673-15.573-23.236-14.769-37.145h-0.333c-0.091 1.714-0.091 3.431 0 5.145 0.557 12.226 5.841 23.779 14.77 32.291l0.332-0.291z"/>
    <path id="Shape" d="m101.7 36.982h0.48c-0.49-0.897-1.01-1.776-1.56-2.637l-0.28 0.31c0.48 0.763 0.93 1.539 1.36 2.327z"/>
    <path id="Shape" d="m108.04 57.618v-0.382h-0.41c1.03 17.035-7.23 33.32-21.679 42.741-14.448 9.423-32.896 10.553-48.419 2.973l-0.277 0.3c15.586 7.63 34.106 6.54 48.665-2.84 14.56-9.392 22.98-25.675 22.12-42.792z"/>
    <path id="Shape" d="m78.923 107.98c0.72-0.29 1.44-0.6 2.142-0.93l-0.167-0.34c-0.701 0.33-1.403 0.64-2.123 0.93l0.148 0.34z"/>
    <path id="Shape" d="m17.649 92.855l0.296-0.237c-0.48-0.582-0.96-1.182-1.422-1.818l-0.314 0.236c0.406 0.619 0.942 1.237 1.44 1.819z"/>
    <path id="Shape" d="m14.769 89.091l0.314-0.218c-0.425-0.618-0.849-1.273-1.255-1.909l-0.24 0.309c0.406 0.636 0.83 1.272 1.181 1.818z"/>
    <path id="Shape" d="m7.92 74.691c0.2215 0.727 0.4615 1.473 0.7015 2.2l0.3693-0.127c-0.24-0.709-0.48-1.455-0.7016-2.182l-0.3692 0.109z"/>
    <path id="Shape" d="m22.412 97.891c0.573 0.527 1.145 1.036 1.736 1.527l0.258-0.291c-0.591-0.491-1.163-1-1.717-1.527l-0.277 0.291z"/>
    <path id="Shape" d="m12.425 85.273l0.332-0.182c-0.369-0.655-0.739-1.346-1.089-2.018l-0.351 0.163c0.351 0.691 0.72 1.364 1.108 2.037z"/>
    <path id="Shape" d="m10.338 81.164l0.351-0.164c-0.314-0.691-0.609-1.4-0.8859-2.109l-0.3693 0.145c0.277 0.709 0.5912 1.437 0.9042 2.128z"/>
    <path id="Shape" d="m74.529 109.56c0.739-0.23 1.477-0.47 2.216-0.74l-0.13-0.37-2.197 0.73 0.111 0.38z"/>
    <polygon id="Shape" points="65.428 111.55 67.735 111.2 67.735 110.82 65.446 111.16"/>
    <polygon id="Shape" points="70.025 110.75 72.295 110.2 72.203 109.84 69.951 110.38"/>
    <path id="Shape" d="m27.822 102.27l0.221-0.31c-0.628-0.43-1.255-0.91-1.846-1.36l-0.24 0.31c0.609 0.45 1.237 0.91 1.865 1.36z"/>
    <path id="Shape" d="m31.735 104.78l0.203-0.33c-0.664-0.38-1.329-0.78-1.975-1.2l-0.203 0.33c0.628 0.4 1.311 0.8 1.975 1.2z"/>
    <polygon id="Shape" points="37.975 107.89 39.637 108.55 39.637 108.11 38.178 107.53"/>
    <path id="Shape" d="m35.852 106.95l0.166-0.35c-0.701-0.33-1.384-0.67-2.067-1.04l-0.185 0.35c0.683 0.36 1.311 0.71 2.086 1.04z"/>
    <path id="Shape" d="m20.751 96.364l0.277-0.273c-0.536-0.546-1.071-1.109-1.588-1.673l-0.295 0.255c0.535 0.509 1.07 1.072 1.606 1.691z"/>
    <path id="Shape" d="m17.778 27.055c-0.498 0.581-0.978 1.2-1.44 1.818l0.277 0.218c0.462-0.6 0.942-1.2 1.422-1.818l-0.259-0.218z"/>
    <path id="Shape" d="m24.554 20.782l-0.259-0.291c-0.59 0.491-1.163 1.018-1.735 1.527l0.258 0.273c0.573-0.473 1.182-1.018 1.736-1.509z"/>
    <path id="Shape" d="m20.898 23.636c-0.535 0.546-1.07 1.109-1.587 1.673l0.295 0.255c0.517-0.564 1.052-1.128 1.588-1.673l-0.296-0.255z"/>
    <polygon id="Shape" points="27.692 17.909 26.16 19.036 26.4 19.345 27.692 18.345"/>
    <polygon id="Shape" points="49.311 8.8727 47.243 9.2727 47.243 9.6545 49.329 9.2545"/>
    <polygon id="Shape" points="60.923 111.95 63.194 111.8 63.194 111.42 60.905 111.56"/>
    <path id="Shape" d="m14.972 30.727c-0.443 0.637-0.867 1.273-1.274 1.928l0.333 0.2c0.406-0.637 0.831-1.291 1.274-1.91l-0.333-0.218z"/>
    <path id="Shape" d="m12.517 34.545c-0.388 0.673-0.757 1.346-1.089 2.037l0.35 0.163c0.351-0.672 0.72-1.363 1.09-2.018l-0.351-0.182z"/>
    <path id="Shape" d="m7.2185 49.745c0.1477-0.745 0.3323-1.49 0.5169-2.236l-0.3508-0.073c-0.1846 0.746-0.3692 1.491-0.5169 2.255l0.3508 0.054z"/>
    <path id="Shape" d="m10.763 38.891l-0.351-0.164c-0.314 0.691-0.6274 1.418-0.9043 2.128l0.3692 0.145c0.2581-0.709 0.5721-1.418 0.8861-2.109z"/>
    <path id="Shape" d="m8.6769 43.018c-0.2584 0.727-0.4984 1.455-0.72 2.2l0.3693 0.109c0.2215-0.727 0.4615-1.454 0.72-2.182l-0.3693-0.127z"/>
    <path id="Shape" d="m108.76 74.782l0.37 0.109c0.22-0.727 0.42-1.473 0.62-2.218l-0.37-0.091c-0.2 0.745-0.46 1.473-0.62 2.2z"/>
    <path id="Shape" d="m105.8 36.855l-0.35 0.163c0.35 0.673 0.69 1.382 0.98 2.073l0.35-0.146c-0.29-0.763-0.64-1.4-0.98-2.09z"/>
    <path id="Shape" d="m97.975 25.455l-0.295 0.254c0.517 0.564 1.015 1.146 1.495 1.818l0.296-0.236c-0.462-0.636-0.979-1.236-1.496-1.836z"/>
    <path id="Shape" d="m83.077 106.02c0.683-0.35 1.366-0.73 2.031-1.11l-0.185-0.33c-0.665 0.38-1.348 0.75-2.012 1.11l0.166 0.33z"/>
    <path id="Shape" d="m102.28 30.909c-0.43-0.636-0.89-1.254-1.35-1.818l-0.31 0.236c0.46 0.6 0.9 1.237 1.34 1.818l0.32-0.236z"/>
    <polygon id="Shape" points="58.708 8.0545 56.382 8.0545 56.382 8.4364 58.689 8.4364"/>
    <polygon id="Shape" points="54.074 8.6364 54.074 8.2545 51.692 8.4909 51.692 8.4909 51.692 8.8727 51.692 8.8727"/>
    <polygon id="Shape" points="61.034 8.1091 61.034 8.4909 63.342 8.6545 63.342 8.2727"/>
    <polygon id="Shape" points="77.003 11.327 74.788 10.564 74.658 10.927 76.855 11.673"/>
    <polygon id="Shape" points="72.554 9.9091 70.283 9.3455 70.283 9.7273 72.535 10.291"/>
    <polygon id="Shape" points="67.994 8.8909 65.686 8.5273 65.686 8.9091 67.975 9.2727"/>
    <path id="Shape" d="m103.53 32.855l-0.33 0.2c0.41 0.636 0.79 1.309 1.16 1.963l0.34-0.182c-0.36-0.672-0.76-1.345-1.17-1.981z"/>
    <path id="Shape" d="m97.846 94.782c0.517-0.564 1.034-1.146 1.514-1.818l-0.369-0.237c-0.48 0.582-0.997 1.164-1.514 1.818l0.369 0.237z"/>
    <path id="Shape" d="m100.73 91.236c0.46-0.618 0.92-1.236 1.36-1.818l-0.31-0.327c-0.44 0.618-0.89 1.254-1.35 1.818l0.3 0.327z"/>
    <path id="Shape" d="m103.38 87.455c0.41-0.655 0.82-1.31 1.19-1.982l-0.34-0.182c-0.37 0.654-0.77 1.327-1.18 1.964l0.33 0.2z"/>
    <path id="Shape" d="m87.157 103.64c0.646-0.42 1.292-0.86 1.846-1.29l-0.221-0.31c-0.628 0.43-1.274 0.87-1.847 1.27l0.222 0.33z"/>
    <path id="Shape" d="m105.66 83.436c0.35-0.672 0.68-1.381 1.01-2.072l-0.35-0.164c-0.31 0.691-0.65 1.382-1 2.055l0.34 0.181z"/>
    <path id="Shape" d="m90.96 101.05c0.609-0.47 1.218-0.96 1.846-1.45l-0.258-0.291c-0.591 0.491-1.182 0.981-1.846 1.441l0.258 0.3z"/>
    <path id="Shape" d="m94.505 98.073c0.572-0.528 1.126-1.055 1.661-1.6l-0.277-0.273c-0.535 0.545-1.089 1.073-1.661 1.6l0.277 0.273z"/>
    <path id="Shape" d="m110.33 52.2h0.38c-0.11-0.764-0.25-1.527-0.4-2.273h-0.39c0.15 0.764 0.28 1.528 0.41 2.273z"/>
    <path id="Shape" d="m108.41 77.091l-0.37-0.127c-0.26 0.709-0.54 1.436-0.82 2.145l0.37 0.146c0.28-0.71 0.56-1.437 0.82-2.164z"/>
    <path id="Shape" d="m107.69 41.055l-0.37 0.145c0.27 0.709 0.55 1.418 0.79 2.145l0.37-0.127c-0.24-0.727-0.52-1.4-0.79-2.163z"/>
    <path id="Shape" d="m109.2 45.455l-0.37 0.109c0.22 0.727 0.43 1.472 0.59 2.2h0.37c-0.18-0.873-0.39-1.619-0.59-2.309z"/>
    <path id="Shape" d="m110.77 56.727h0.39c0-0.763-0.11-1.527-0.21-2.291h-0.38c0.2 0.782 0.2 1.546 0.2 2.291z"/>
    <path id="Shape" d="m109.88 70.345h0.39c0.15-0.745 0.3-1.509 0.43-2.254h-0.39c-0.13 0.764-0.28 1.527-0.43 2.254z"/>
    <path id="Shape" d="m111.19 63.636h-0.42c0 0.764-0.13 1.528-0.2 2.273h0.38c0.13-0.782 0.21-1.545 0.24-2.273z"/>
    <path id="Shape" d="m110.92 61.291h0.38v-2.291h-0.38c0.02 0.764 0.02 1.545 0 2.291z"/>
    <ellipse id="Oval" cy="84.8" cx="66.997" rx="1.7354" ry="1.7091"/>
    <path id="Shape" d="m61.569 102.89c23.81-0.67 42.661-20.048 42.321-43.504-0.34-23.457-19.747-42.296-43.567-42.296s-43.224 18.839-43.565 42.296c-0.34 23.456 18.509 42.834 42.319 43.504 0.831 0.07 1.661 0.06 2.492 0z"/>
    <ellipse id="Oval" cy="84.8" cx="55.218" rx="1.7354" ry="1.7091"/>
   </g>
   <g id="transparent-pricing" transform="translate(35 34)">
    <path id="Shape" fill="#fff" d="m50.6 49.9l-10.8-10.8c3.8-4.1 6.1-9.6 6.1-15.6 0-12.6-10.3-22.9-23-22.9-12.6 0-22.9 10.3-22.9 22.9s10.3 22.9 22.9 22.9c5.6 0 10.7-2 14.7-5.3l10.9 10.9 2.1-2.1zm-47.6-26.4c0-11 8.9-19.9 19.9-19.9s19.9 8.9 19.9 19.9-8.9 19.9-19.9 19.9c-11 0.1-19.9-8.9-19.9-19.9z"/>
    <path id="Shape" fill="#F8E81C" d="m27.8 31.8c-0.3 0.5-0.7 1-1.1 1.3s-0.9 0.6-1.4 0.7c-0.1 0-0.2 0-0.4 0.1v-8.3c0.8 0.4 1.5 0.8 2.1 1.3 0.8 0.7 1.3 1.7 1.2 2.8 0 0.8-0.1 1.5-0.4 2.1zm-6-9.9c-0.4-0.2-0.8-0.3-1.2-0.5-0.5-0.2-0.9-0.5-1.3-0.9-0.4-0.3-0.7-0.7-0.9-1.1s-0.3-0.9-0.3-1.5 0.1-1.1 0.3-1.6 0.5-0.9 0.8-1.3c0.4-0.4 0.8-0.7 1.3-0.9 0.4-0.2 0.8-0.3 1.2-0.4l0.1 8.2zm8.2 5c-0.4-0.8-0.9-1.4-1.6-2-0.7-0.5-1.4-1-2.2-1.4-0.5-0.2-0.9-0.4-1.4-0.6v-9.3c0.5 0.1 0.9 0.2 1.4 0.4 0.8 0.4 1.4 0.9 1.9 1.7l1.9-1.6c-0.3-0.4-0.7-0.7-1.1-1.1-0.4-0.3-0.8-0.7-1.3-0.9-0.5-0.3-1-0.5-1.7-0.6-0.3-0.1-0.7-0.1-1.1-0.2v-2.6h-3.1v2.9c-0.7 0.1-1.4 0.3-2 0.5-0.8 0.3-1.5 0.8-2.1 1.3-0.6 0.6-1.1 1.2-1.5 2s-0.6 1.7-0.6 2.6c0 1 0.2 1.9 0.6 2.7 0.4 0.7 0.9 1.4 1.5 1.9s1.3 0.9 2.1 1.3c0.6 0.3 1.3 0.5 1.9 0.7v9.5c-0.3 0-0.5-0.1-0.8-0.2-0.4-0.1-0.9-0.3-1.3-0.6-0.5-0.2-0.9-0.5-1.3-0.9l-1.2-1.2-2 1.4c0.7 1 1.6 1.8 2.9 2.5 1.1 0.6 2.4 1 3.8 1.1v2.6h3.1v-2.8c0.6-0.1 1.1-0.2 1.6-0.5 0.8-0.3 1.5-0.8 2.2-1.3 0.6-0.6 1.1-1.2 1.4-2s0.5-1.6 0.5-2.6c0.1-1-0.1-1.9-0.5-2.7z"/>
   </g>
  </g>
 </g>
</svg>
