<?xml version="1.0" encoding="UTF-8" standalone="no"?>
<svg id="Layer_1" style="enable-background:new 0 0 128 128" xmlns="http://www.w3.org/2000/svg" xml:space="preserve" version="1.1" xmlns:xlink="http://www.w3.org/1999/xlink" viewBox="0 0 128 128"><style type="text/css">
	.st0{fill:#60646B;}
</style><path class="st0" d="m120.8 107h-2v-61.5c0-2.7-2.2-4.9-4.9-4.9h-26.5c-2.7 0-4.8 2.2-4.8 4.9v61.5h-4.4v-71.9l-14.2-11.5-15.1 11.5v71.9h-4.4v-61.5c0-2.7-2.2-4.9-4.9-4.9h-26.4c-2.7 0-4.8 2.2-4.8 4.9v61.5h-1.2v10h113.5v-10h0.1zm-22.7-14.8v10.3h-10.4v-10.3h10.4zm-10.4-5.2v-10.3h10.3v10.3h-10.3zm15.5-40.9h10.3v10.3h-10.3v-10.3zm0 15.2h10.3v10.3h-10.3v-10.3zm0 15.4h10.3v10.3h-10.3v-10.3zm0 15.5h10.3v10.3h-10.3v-10.3zm-15.5-46.1h10.3v10.3h-10.3v-10.3zm0 15.2h10.3v10.3h-10.3v-10.3zm-58.7-15.2h10.3v10.3h-10.3v-10.3zm0 15.2h10.3v10.3h-10.3v-10.3zm0 15.4h10.3v10.3h-10.3v-10.3zm0 15.5h10.3v10.3h-10.3v-10.3zm-15.5-46.1h10.3v10.3h-10.3v-10.3zm0 15.2h10.3v10.3h-10.3v-10.3zm0 15.4h10.3v10.3h-10.3v-10.3zm0 15.5h10.3v10.3h-10.3v-10.3zm45.8-13.3h9.5v28.1h-9.5v-28.1z"/><path class="st0" d="m78.2 31.4c0-1.3 0.1-2.5 0.1-3.8-4.8-3.9-9.5-7.7-14.3-11.6-4.8 4-10.6 8.1-15.4 12.1v3.8c4.8-4.1 10.5-8.1 15.3-12.1 4.8 3.9 9.6 7.7 14.3 11.6z"/></svg>
