<?xml version="1.0" encoding="UTF-8"?>
<svg width="980px" height="980px" viewBox="0 0 980 980" version="1.1" xmlns="http://www.w3.org/2000/svg" xmlns:xlink="http://www.w3.org/1999/xlink">
    <!-- Generator: Sketch 44.1 (41455) - http://www.bohemiancoding.com/sketch -->
    <title>630ae38191d98373fd4fb000d1297579</title>
    <desc>Created with Sketch.</desc>
    <defs></defs>
    <g id="Page-1" stroke="none" stroke-width="1" fill="none" fill-rule="evenodd">
        <g id="630ae38191d98373fd4fb000d1297579" fill-rule="nonzero" fill="#61B00A">
            <path d="M474.9,799.9 L140.6,454.5 L226.3,384.7 L419.6,538.7 C498.8,443 674.7,253.2 917.4,102.2 L937.8,150 C715.1,357.8 532.7,650.4 474.9,799.9 L474.9,799.9 L474.9,799.9 Z M897.1,422.8 C900.7,444.7 902.6,467.1 902.6,490 C902.6,717.9 717.9,902.6 490,902.6 C262.1,902.6 77.4,717.9 77.4,490 C77.4,262.1 262.1,77.4 490,77.4 C545,77.4 597.5,88.2 645.5,107.7 L645.5,25.2 C595.6,8.5 543.4,0 490,0 C423.9,0 359.7,13 299.2,38.5 C240.8,63.2 188.4,98.5 143.5,143.5 C98.5,188.5 63.2,240.9 38.5,299.2 C13,359.7 0,423.9 0,490 C0,556.1 13,620.3 38.5,680.8 C63.2,739.2 98.5,791.6 143.5,836.5 C188.5,881.5 240.9,916.8 299.2,941.5 C359.7,967 423.9,980 490,980 C556.1,980 620.3,967 680.8,941.5 C739.2,916.8 791.6,881.5 836.5,836.5 C881.5,791.5 916.8,739.1 941.5,680.8 C967,620.3 980,556.1 980,490 C980,467.3 978.5,444.9 975.4,422.8 L897.1,422.8 L897.1,422.8 Z" id="Shape"></path>
        </g>
    </g>
</svg>