<?xml version="1.0" encoding="UTF-8" standalone="no"?>
<svg xmlns="http://www.w3.org/2000/svg" height="37px" width="32px" version="1.1" xmlns:xlink="http://www.w3.org/1999/xlink" viewBox="0 0 32 37"><!-- Generator: Sketch 44.1 (41455) - http://www.bohemiancoding.com/sketch -->
 <title>44274</title>
 <desc>Created with Sketch.</desc>
 <g id="Page-1" fill-rule="evenodd" fill="none">
  <g id="44274" fill="#fff" fill-rule="nonzero">
   <path id="Shape" d="m3.134 30.463c0-1.326 0.698-2.086 1.979-2.086s1.979 0.76 1.979 2.086v4.314c0 1.324-0.698 2.086-1.979 2.086-1.279 0-1.979-0.762-1.979-2.086v-4.314zm1.304 4.396c0 0.597 0.262 0.818 0.676 0.818s0.676-0.225 0.676-0.818v-4.479c0-0.592-0.262-0.816-0.676-0.816s-0.676 0.226-0.676 0.816v4.479zm4.66-4.099v6.008h-1.172v-8.297h1.636l1.337 4.967v-4.967h1.162v8.297h-1.339l-1.624-6.008zm5.739-2.289h1.304v7.111h2.146v1.186h-3.446l-0.004-8.297zm4.021 0h1.304v8.297h-1.304v-8.297zm3.413 2.289v6.008h-1.171v-8.297h1.635l1.34 4.967v-4.967h1.159v8.297h-1.338l-1.625-6.008zm5.206 1.207h1.79v1.187h-1.79v2.432h2.253v1.187h-3.556v-8.297h3.556v1.188h-2.253v2.303zm-0.54-20.771h-0.532c-1.33-3.994-5.297-6.898-9.973-6.898-4.674 0-8.643 2.904-9.973 6.898h-0.534c-1.104 0-2.007 0.9-2.007 2.009v2.338c0 1.104 0.902 2.007 2.007 2.007h0.478c1.913 7.402 9.733 9.482 9.821 9.508l0.204 0.051 0.201-0.049c0.091-0.021 7.94-2.021 9.84-9.51h0.468c1.106 0 2.009-0.9 2.009-2.007v-2.339c-0.001-1.107-0.903-2.008-2.009-2.008zm-3.749 9.521h-5.265c-0.255-0.463-0.746-0.777-1.313-0.777-0.826 0-1.496 0.67-1.496 1.496 0 0.828 0.67 1.496 1.496 1.496 0.658 0 1.218-0.426 1.417-1.018h4.163c-2.218 2.309-4.975 3.232-5.757 3.459-1.366-0.408-8.776-3.004-8.776-11.24 0-0.138 0.004-0.271 0.014-0.406 2.269-0.426 4.923-1.139 5.822-2.229 0 0 0.358 2.034-0.959 2.872 0 0 4.67-0.717 5.51-2.152 0 0 0.164 3.723 7.08 3.312-0.225 2.138-0.97 3.84-1.936 5.187zm7.779-8.301c-0.288-7.112-6.44-12.416-14.535-12.416-8.099 0-14.247 5.302-14.536 12.416-0.582 0.269-0.971 0.8-0.971 1.425v1.062c0 0.902 0.809 1.609 1.841 1.609h0.802v-1.078-2.125-0.687c0.18-6.263 5.647-10.945 12.864-10.945 7.221 0 12.689 4.688 12.863 10.955v0.678 2.125 1.076h0.802c1.032 0 1.841-0.705 1.841-1.607v-1.062c0-0.626-0.389-1.158-0.971-1.426z"/>
  </g>
 </g>
</svg>
