<?xml version="1.0" encoding="UTF-8" standalone="no"?>
<!-- Generator: Adobe Illustrator 19.0.0, SVG Export Plug-In . SVG Version: 6.00 Build 0)  -->
<svg id="Layer_1" style="enable-background:new 0 0 512 512" xmlns="http://www.w3.org/2000/svg" xml:space="preserve" viewBox="0 0 512 512" version="1.1" y="0px" x="0px" xmlns:xlink="http://www.w3.org/1999/xlink">
<path d="m512 402.28c0 16.716-13.55 30.267-30.265 30.267h-451.48c-16.71 0-30.26-13.55-30.26-30.27v-292.56c0-16.716 13.55-30.266 30.265-30.266h451.47c16.716 0 30.265 13.551 30.265 30.266v292.56z" fill="#fff"/>
<path d="m113.64 258.04l-12.022-57.671c-2.055-7.953-8.035-10.319-15.507-10.632h-55.12l-0.491 2.635c42.929 10.39 71.338 35.5 83.138 65.66z" fill="#F79F1A"/>
<g fill="#059BBF">
	<polygon points="241.35 190.89 205.74 190.89 183.5 321.42 219.05 321.42"/>
	<path d="m135.34 321.29l56.01-130.31h-37.691l-34.843 89.028-3.719-13.442c-6.83-16.171-26.35-39.446-49.266-54.098l31.85 108.86 37.656-0.04z"/>
	<path d="m342.93 278.75c0.132-14.819-9.383-26.122-29.887-35.458-12.461-6.03-20.056-10.051-19.965-16.17 0-5.406 6.432-11.213 20.368-11.213 11.661-0.179 20.057 2.367 26.624 5.003l3.218 1.475 4.826-28.277c-7.059-2.637-18.094-5.451-31.895-5.451-35.157 0-59.904 17.691-60.128 43.064-0.224 18.763 17.692 29.216 31.181 35.469 13.847 6.374 18.493 10.453 18.404 16.171-0.089 8.743-11.035 12.73-21.264 12.73-14.25 0-21.8-1.965-33.509-6.843l-4.55-2.09-4.998 29.249c8.303 3.629 23.668 6.801 39.618 6.933 37.39 0.01 61.69-17.45 61.96-44.58z"/>
	<path d="m385.23 301.86c4.065 0 40.382 0.045 45.566 0.045 1.072 4.545 4.333 19.565 4.333 19.565h33.011l-28.813-130.44h-27.472c-8.533 0-14.874 2.323-18.628 10.809l-52.845 119.63h37.392s6.08-16.07 7.46-19.6zm24.39-63.22c-0.176 0.357 2.95-7.549 4.737-12.463l2.411 11.256s6.792 31.182 8.22 37.704h-29.528c2.95-7.5 14.16-36.5 14.16-36.5z"/>
	<path d="m481.74 79.451h-451.48c-16.71 0-30.26 13.55-30.26 30.269v31.412h512v-31.412c0-16.719-13.55-30.269-30.26-30.269z"/>
</g>
<path d="m481.74 432.55h-451.48c-16.71 0-30.26-13.55-30.26-30.27v-31.412h512v31.412c0 16.72-13.55 30.27-30.26 30.27z" fill="#F79F1A"/>
<path opacity=".15" style="enable-background:new" d="m21.517 402.28v-292.56c0-16.716 13.551-30.266 30.267-30.266h-21.52c-16.714-0.003-30.264 13.547-30.264 30.266v292.56c0 16.716 13.55 30.267 30.265 30.267h21.52c-16.716 0-30.268-13.55-30.268-30.27z" fill="#202121"/>
</svg>
