<?xml version="1.0" encoding="utf-8"?>
<!-- Generator: Adobe Illustrator 19.1.0, SVG Export Plug-In . SVG Version: 6.00 Build 0)  -->
<svg version="1.1" id="Layer_1" xmlns="http://www.w3.org/2000/svg" xmlns:xlink="http://www.w3.org/1999/xlink" x="0px" y="0px"
	 viewBox="33 16.8 98.2 33.2" style="enable-background:new 33 16.8 98.2 33.2;" xml:space="preserve">
<style type="text/css">
	.st0{fill-rule:evenodd;clip-rule:evenodd;fill:#EC1C24;}
	.st1{fill-rule:evenodd;clip-rule:evenodd;fill:#005AA9;}
</style>
<g>
	<path class="st0" d="M102.246,45.048l-0.037,0.181c0.163,0.024,0.244,0.104,0.244,0.24c0,0.028-0.007,0.085-0.02,0.17l-0.336,1.636
		c-0.033,0.158-0.071,0.265-0.115,0.324c-0.044,0.058-0.136,0.088-0.276,0.088l-0.029,0.175h1.635l0.039-0.175
		c-0.097-0.016-0.163-0.041-0.199-0.076c-0.037-0.034-0.055-0.086-0.055-0.156c0-0.033,0.015-0.139,0.047-0.321l0.444-2.192
		L102.246,45.048L102.246,45.048z M105.934,45.949c-0.157,0.034-0.351,0.077-0.585,0.128c-0.232,0.052-0.455,0.12-0.666,0.205
		c-0.211,0.085-0.398,0.205-0.561,0.36c-0.162,0.154-0.26,0.348-0.297,0.581c-0.014,0.078-0.02,0.128-0.02,0.151
		c0,0.118,0.033,0.219,0.097,0.302c0.066,0.085,0.154,0.147,0.266,0.19c0.112,0.043,0.238,0.064,0.378,0.064
		c0.183,0,0.369-0.037,0.561-0.111c0.192-0.074,0.363-0.181,0.511-0.321c0.015,0.109,0.028,0.187,0.039,0.233
		c0.011,0.046,0.034,0.089,0.066,0.127h1.165l0.034-0.175c-0.143,0-0.215-0.053-0.215-0.16c0-0.03,0.007-0.085,0.019-0.167
		l0.321-1.544c0.012-0.074,0.018-0.133,0.018-0.181c-0.004-0.123-0.034-0.235-0.089-0.337c-0.056-0.101-0.156-0.187-0.299-0.254
		c-0.143-0.068-0.337-0.101-0.584-0.101c-0.203,0-0.377,0.012-0.522,0.036c-0.144,0.024-0.291,0.055-0.44,0.093
		c-0.148,0.038-0.247,0.057-0.296,0.057c-0.069,0-0.129-0.026-0.181-0.08l-0.344,1.038l0.158,0.05
		c0.06-0.143,0.152-0.272,0.277-0.383c0.125-0.112,0.261-0.198,0.41-0.259c0.149-0.06,0.288-0.09,0.417-0.09
		c0.122,0,0.219,0.028,0.293,0.084c0.073,0.056,0.109,0.139,0.109,0.248C105.977,45.799,105.962,45.872,105.934,45.949
		L105.934,45.949z M105.862,46.31c-0.024,0.179-0.073,0.348-0.146,0.506c-0.074,0.158-0.16,0.285-0.262,0.38
		c-0.1,0.095-0.201,0.143-0.301,0.143c-0.066,0-0.127-0.022-0.181-0.065c-0.057-0.055-0.086-0.122-0.086-0.201
		c0-0.109,0.05-0.223,0.152-0.342c0.085-0.098,0.201-0.186,0.35-0.267C105.537,46.384,105.695,46.334,105.862,46.31L105.862,46.31z
		 M105.862,43.718c0.016-0.174,0.083-0.311,0.202-0.411c0.119-0.1,0.251-0.151,0.396-0.151c0.14,0.029,0.21,0.099,0.21,0.211
		c0,0.083-0.04,0.173-0.12,0.271c-0.079,0.098-0.18,0.177-0.297,0.235c-0.12,0.053-0.231,0.125-0.334,0.218
		c-0.102,0.093-0.152,0.191-0.152,0.293c0,0.04,0.006,0.075,0.018,0.106c0.073-0.06,0.17-0.09,0.292-0.09
		c0.041,0,0.093,0.003,0.158,0.01c-0.007-0.026-0.01-0.044-0.01-0.055c0-0.06,0.032-0.109,0.096-0.147
		c0.065-0.039,0.178-0.092,0.339-0.16c0.16-0.069,0.289-0.136,0.383-0.204c0.095-0.067,0.159-0.152,0.191-0.255
		c0.032-0.086,0.048-0.165,0.048-0.236c0-0.097-0.026-0.18-0.078-0.247c-0.053-0.068-0.125-0.118-0.215-0.151
		c-0.091-0.033-0.194-0.049-0.305-0.049c-0.138,0-0.266,0.018-0.383,0.055c-0.006,0.002-0.045,0.011-0.117,0.028
		c-0.071,0.018-0.12,0.029-0.148,0.034c-0.028,0.006-0.055,0.009-0.084,0.009c-0.051,0-0.09-0.017-0.119-0.05l-0.071,0.736H105.862
		L105.862,43.718z M109.075,45.454c0-0.003-0.003-0.053-0.007-0.154c-0.004-0.1-0.011-0.177-0.022-0.23
		c-0.01-0.052-0.025-0.095-0.049-0.128l-1.176,0.106l-0.048,0.181c0.169,0,0.254,0.075,0.254,0.225c0,0.043-0.007,0.105-0.02,0.184
		l-0.344,1.686c-0.017,0.081-0.037,0.144-0.058,0.192c-0.021,0.047-0.061,0.087-0.119,0.12c-0.057,0.033-0.138,0.05-0.245,0.05
		l-0.038,0.175h1.679l0.038-0.175c-0.152,0-0.23-0.079-0.23-0.237c0-0.028,0.009-0.087,0.025-0.175l0.196-1.009
		c0.022-0.118,0.07-0.23,0.146-0.336c0.075-0.105,0.16-0.189,0.253-0.252c0.093-0.062,0.176-0.094,0.247-0.094
		c0.109,0,0.163,0.067,0.163,0.202c0,0.034-0.005,0.076-0.015,0.125l-0.267,1.364c-0.023,0.103-0.044,0.179-0.063,0.23
		c-0.019,0.051-0.051,0.095-0.096,0.128c-0.045,0.036-0.109,0.053-0.19,0.053l-0.024,0.175h1.641l0.036-0.175
		c-0.165,0-0.248-0.074-0.248-0.222c0-0.038,0.009-0.101,0.025-0.189l0.339-1.636c0.01-0.049,0.015-0.098,0.015-0.149
		c0-0.174-0.058-0.309-0.174-0.409c-0.116-0.1-0.268-0.149-0.458-0.149c-0.173,0-0.363,0.044-0.566,0.132
		C109.471,45.15,109.271,45.281,109.075,45.454L109.075,45.454z M113.695,44.04l-0.048,0.185c0.162,0,0.242,0.078,0.242,0.235
		c0,0.034-0.006,0.077-0.018,0.13l-0.532,2.683c-0.032,0.116-0.07,0.208-0.116,0.277c-0.046,0.068-0.137,0.112-0.274,0.135
		l-0.03,0.175h1.645l0.034-0.175c-0.16-0.027-0.24-0.111-0.24-0.251c0-0.037,0.011-0.107,0.034-0.211l0.206-0.998
		c0.02-0.117,0.064-0.226,0.132-0.323c0.068-0.096,0.147-0.174,0.237-0.23c0.09-0.056,0.174-0.084,0.253-0.084
		c0.069,0,0.125,0.023,0.167,0.071c0.042,0.047,0.064,0.118,0.064,0.214c0,0.058-0.007,0.113-0.02,0.165l-0.234,1.184
		c-0.026,0.123-0.068,0.23-0.125,0.323c-0.058,0.093-0.161,0.14-0.31,0.14l-0.038,0.175h1.649l0.029-0.175
		c-0.137,0-0.205-0.053-0.205-0.16c0-0.055,0.009-0.121,0.028-0.202l0.321-1.6c0.015-0.071,0.023-0.149,0.023-0.236
		c0-0.186-0.054-0.328-0.162-0.423c-0.108-0.095-0.252-0.143-0.431-0.143c-0.122,0-0.256,0.022-0.399,0.066
		c-0.144,0.045-0.291,0.111-0.44,0.2c-0.149,0.089-0.287,0.192-0.414,0.31l0.315-1.544L113.695,44.04L113.695,44.04z
		 M116.586,46.462c0.059-0.232,0.155-0.44,0.289-0.624c0.133-0.183,0.291-0.337,0.474-0.462c0.184-0.123,0.379-0.217,0.585-0.28
		c0.206-0.063,0.414-0.094,0.622-0.094c0.029-0.003,0.073-0.005,0.133-0.005c0.23,0,0.441,0.044,0.631,0.131
		c0.164,0.076,0.3,0.184,0.405,0.325l0.71-0.973h0.618l-0.583,0.803c-0.019,0.034-0.029,0.071-0.029,0.111
		c0,0.03,0.01,0.055,0.029,0.074h-0.733c0.012,0.016,0.023,0.034,0.035,0.051c0.111,0.174,0.167,0.383,0.167,0.626
		c0,0.125-0.013,0.245-0.037,0.361c-0.052,0.237-0.146,0.448-0.28,0.635c-0.135,0.187-0.296,0.344-0.483,0.469
		c-0.187,0.125-0.388,0.221-0.602,0.284c-0.214,0.064-0.428,0.095-0.64,0.095c-0.185,0-0.359-0.025-0.521-0.073
		c-0.164-0.049-0.307-0.122-0.432-0.218c-0.125-0.097-0.222-0.218-0.293-0.364c-0.071-0.147-0.107-0.314-0.107-0.503
		C116.542,46.725,116.557,46.601,116.586,46.462L116.586,46.462z M117.714,46.402c-0.031,0.16-0.048,0.312-0.048,0.452
		c0,0.206,0.034,0.364,0.101,0.478c0.068,0.112,0.154,0.169,0.257,0.169c0.101,0,0.202-0.042,0.301-0.125
		c0.098-0.083,0.191-0.208,0.274-0.376c0.084-0.167,0.151-0.367,0.2-0.597c0.025-0.12,0.037-0.243,0.037-0.366
		c0-0.196-0.037-0.348-0.113-0.455c-0.076-0.108-0.171-0.162-0.288-0.162c-0.096,0-0.193,0.038-0.291,0.113
		c-0.098,0.076-0.186,0.187-0.264,0.334C117.803,46.013,117.748,46.192,117.714,46.402L117.714,46.402z M122.149,45.454
		c0-0.003-0.002-0.053-0.006-0.154c-0.005-0.1-0.012-0.177-0.021-0.23c-0.01-0.052-0.026-0.095-0.05-0.128l-1.176,0.106
		l-0.047,0.181c0.169,0,0.253,0.075,0.253,0.225c0,0.043-0.007,0.105-0.019,0.184l-0.344,1.686
		c-0.018,0.081-0.037,0.144-0.059,0.192c-0.021,0.047-0.061,0.087-0.118,0.12c-0.057,0.033-0.139,0.05-0.245,0.05l-0.039,0.175
		h1.679l0.039-0.175c-0.153,0-0.23-0.079-0.23-0.237c0-0.028,0.009-0.087,0.025-0.175l0.196-1.009
		c0.023-0.118,0.07-0.23,0.146-0.336c0.075-0.105,0.159-0.189,0.252-0.252c0.093-0.062,0.176-0.094,0.248-0.094
		c0.108,0,0.162,0.067,0.162,0.202c0,0.034-0.005,0.076-0.015,0.125l-0.267,1.364c-0.023,0.103-0.044,0.179-0.063,0.23
		c-0.018,0.051-0.05,0.095-0.096,0.128c-0.045,0.036-0.109,0.053-0.19,0.053l-0.024,0.175h1.641l0.037-0.175
		c-0.166,0-0.249-0.074-0.249-0.222c0-0.038,0.009-0.101,0.025-0.189l0.34-1.636c0.009-0.049,0.014-0.098,0.014-0.149
		c0-0.174-0.058-0.309-0.173-0.409c-0.116-0.1-0.268-0.149-0.458-0.149c-0.174,0-0.363,0.044-0.567,0.132
		C122.545,45.15,122.345,45.281,122.149,45.454L122.149,45.454z M41.284,47.996c0.021,0.003,0.055,0.005,0.1,0.005
		c0.049,0,0.117-0.004,0.203-0.013c0.086-0.009,0.164-0.017,0.235-0.025c0.071-0.009,0.135-0.015,0.192-0.02
		c0.057-0.006,0.112-0.009,0.164-0.009c0.149,0,0.236,0.034,0.263,0.1l0.693-1.262l-0.163-0.041
		c-0.054,0.114-0.122,0.217-0.208,0.31c-0.086,0.092-0.184,0.173-0.294,0.241c-0.11,0.068-0.226,0.12-0.349,0.157
		c-0.122,0.036-0.244,0.055-0.363,0.055c-0.191,0-0.366-0.05-0.526-0.148c-0.159-0.098-0.286-0.256-0.382-0.474
		c-0.096-0.217-0.144-0.495-0.144-0.833c0.013-0.267,0.085-0.516,0.218-0.746c0.132-0.23,0.299-0.414,0.501-0.55
		c0.202-0.135,0.404-0.204,0.607-0.204c0.234,0,0.439,0.097,0.615,0.291c0.176,0.194,0.294,0.492,0.355,0.894l0.144-0.05
		l0.033-1.675c-0.073,0.094-0.172,0.141-0.296,0.141c-0.058,0-0.204-0.023-0.436-0.071c-0.232-0.047-0.436-0.07-0.611-0.07
		c-0.432,0.02-0.8,0.112-1.106,0.274c-0.305,0.162-0.545,0.351-0.72,0.567c-0.173,0.216-0.3,0.414-0.379,0.595
		c-0.078,0.182-0.135,0.34-0.168,0.475c-0.015,0.145-0.023,0.267-0.023,0.366c0,0.379,0.069,0.685,0.209,0.921
		c0.139,0.235,0.31,0.407,0.511,0.516c0.202,0.109,0.376,0.178,0.525,0.204C40.831,47.944,41.032,47.97,41.284,47.996L41.284,47.996
		z M44.038,44.04l-0.048,0.185c0.162,0,0.242,0.078,0.242,0.235c0,0.034-0.006,0.077-0.018,0.13l-0.532,2.683
		c-0.032,0.116-0.07,0.208-0.116,0.277c-0.046,0.068-0.138,0.112-0.275,0.135l-0.029,0.175h1.645l0.034-0.175
		c-0.16-0.027-0.24-0.111-0.24-0.251c0-0.037,0.011-0.107,0.034-0.211l0.206-0.998c0.02-0.117,0.064-0.226,0.131-0.323
		c0.068-0.096,0.147-0.174,0.237-0.23c0.09-0.056,0.173-0.084,0.253-0.084c0.069,0,0.125,0.023,0.167,0.071
		c0.042,0.047,0.064,0.118,0.064,0.214c0,0.058-0.007,0.113-0.02,0.165l-0.234,1.184c-0.026,0.123-0.068,0.23-0.125,0.323
		c-0.058,0.093-0.161,0.14-0.31,0.14l-0.038,0.175h1.65l0.029-0.175c-0.137,0-0.205-0.053-0.205-0.16
		c0-0.055,0.008-0.121,0.028-0.202l0.321-1.6c0.015-0.071,0.023-0.149,0.023-0.236c0-0.186-0.054-0.328-0.162-0.423
		c-0.108-0.095-0.252-0.143-0.431-0.143c-0.123,0-0.256,0.022-0.399,0.066c-0.144,0.045-0.291,0.111-0.439,0.2
		c-0.149,0.089-0.287,0.192-0.414,0.31l0.315-1.544L44.038,44.04L44.038,44.04z M47.085,46.462c-0.029,0.14-0.043,0.263-0.043,0.37
		c0,0.189,0.036,0.356,0.106,0.503c0.071,0.146,0.169,0.267,0.294,0.364c0.125,0.096,0.269,0.17,0.431,0.218
		c0.163,0.048,0.337,0.073,0.521,0.073c0.212,0,0.426-0.031,0.64-0.095c0.213-0.063,0.414-0.159,0.602-0.284
		c0.187-0.125,0.348-0.282,0.483-0.469c0.133-0.187,0.227-0.399,0.28-0.635c0.025-0.116,0.037-0.235,0.037-0.361
		c0-0.243-0.056-0.452-0.167-0.626c-0.111-0.174-0.262-0.304-0.451-0.391c-0.19-0.087-0.4-0.131-0.631-0.131
		c-0.06,0-0.104,0.002-0.133,0.005c-0.208,0-0.415,0.031-0.622,0.094c-0.206,0.063-0.402,0.155-0.585,0.28
		c-0.183,0.125-0.342,0.279-0.475,0.462C47.24,46.022,47.144,46.23,47.085,46.462L47.085,46.462z M48.214,46.402
		c0.034-0.21,0.088-0.388,0.167-0.537c0.077-0.147,0.165-0.259,0.264-0.335c0.098-0.074,0.195-0.112,0.291-0.112
		c0.117,0,0.213,0.053,0.288,0.16c0.076,0.108,0.113,0.261,0.113,0.457c0,0.123-0.012,0.245-0.037,0.366
		c-0.049,0.23-0.116,0.43-0.2,0.597c-0.084,0.167-0.176,0.293-0.274,0.376c-0.1,0.084-0.2,0.125-0.301,0.125
		c-0.103,0-0.189-0.057-0.257-0.169c-0.068-0.113-0.101-0.272-0.101-0.478C48.166,46.713,48.182,46.562,48.214,46.402L48.214,46.402
		z M55.099,46.958l-0.114-0.085c-0.104,0.122-0.212,0.225-0.322,0.307c-0.11,0.082-0.217,0.142-0.322,0.181
		c-0.105,0.039-0.205,0.06-0.298,0.06c-0.126,0-0.238-0.033-0.337-0.096c-0.098-0.065-0.175-0.156-0.23-0.277
		c-0.055-0.12-0.083-0.261-0.083-0.422c0-0.052,0.001-0.092,0.004-0.119c0.032-0.226,0.099-0.418,0.201-0.58
		c0.102-0.162,0.222-0.283,0.361-0.365c0.138-0.082,0.275-0.122,0.412-0.122c0.16,0,0.29,0.057,0.391,0.172
		c0.1,0.115,0.151,0.29,0.151,0.525l0.186-0.05l-0.029-1.184c-0.057,0.077-0.154,0.117-0.292,0.117
		c-0.059,0-0.173-0.012-0.342-0.038c-0.169-0.025-0.303-0.038-0.404-0.038c-0.255,0-0.505,0.058-0.748,0.173
		c-0.244,0.116-0.454,0.278-0.631,0.487c-0.176,0.209-0.299,0.444-0.366,0.709c-0.021,0.109-0.033,0.224-0.033,0.347
		c0,0.223,0.046,0.429,0.138,0.615c0.092,0.187,0.232,0.341,0.42,0.462c0.189,0.12,0.422,0.193,0.699,0.218
		c0.039,0.003,0.095,0.005,0.172,0.005c0.098,0,0.22-0.008,0.367-0.024c0.146-0.015,0.243-0.022,0.289-0.022
		c0.102,0,0.153,0.028,0.153,0.086L55.099,46.958L55.099,46.958z M57.012,47.359c-0.029,0.179-0.044,0.291-0.044,0.332
		c0,0.067,0.012,0.123,0.034,0.17h1.257l0.038-0.175c-0.159,0-0.239-0.078-0.239-0.232c0-0.041,0.012-0.117,0.034-0.23l0.459-2.282
		l-1.363,0.106l-0.048,0.181c0.166,0.024,0.249,0.103,0.249,0.235c0,0.052-0.008,0.11-0.024,0.175l-0.186,0.959
		c-0.026,0.109-0.08,0.216-0.162,0.323c-0.082,0.107-0.173,0.194-0.275,0.262c-0.101,0.068-0.189,0.102-0.263,0.102
		c-0.105,0-0.158-0.065-0.158-0.195c0-0.039,0.006-0.082,0.015-0.131l0.391-2.016l-1.353,0.106l-0.048,0.181
		c0.147,0,0.221,0.06,0.221,0.179c0,0.047-0.011,0.107-0.034,0.181l-0.306,1.544c-0.017,0.094-0.025,0.167-0.025,0.221
		c0,0.191,0.056,0.334,0.168,0.429c0.113,0.095,0.261,0.143,0.445,0.143c0.195,0,0.405-0.051,0.628-0.154
		C56.649,47.67,56.845,47.532,57.012,47.359L57.012,47.359z M60.561,45.002c0.028-0.003,0.073-0.005,0.133-0.005
		c0.23,0,0.441,0.044,0.631,0.131c0.189,0.087,0.34,0.218,0.451,0.391c0.111,0.174,0.167,0.383,0.167,0.626
		c0,0.125-0.013,0.245-0.037,0.361c-0.052,0.237-0.146,0.448-0.28,0.635c-0.135,0.187-0.296,0.344-0.483,0.469
		c-0.187,0.125-0.388,0.221-0.602,0.284c-0.214,0.064-0.428,0.095-0.64,0.095c-0.185,0-0.359-0.025-0.521-0.073
		c-0.163-0.049-0.307-0.122-0.432-0.218c-0.125-0.097-0.222-0.218-0.294-0.364c-0.071-0.147-0.106-0.314-0.106-0.503
		c0-0.107,0.014-0.23,0.043-0.37c0.059-0.232,0.155-0.44,0.289-0.624c0.133-0.183,0.291-0.337,0.474-0.462
		c0.184-0.125,0.379-0.217,0.585-0.28C60.146,45.034,60.353,45.002,60.561,45.002L60.561,45.002z M59.719,46.402
		c-0.031,0.16-0.048,0.311-0.048,0.451c0,0.206,0.034,0.365,0.101,0.478c0.068,0.112,0.154,0.169,0.257,0.169
		c0.101,0,0.202-0.042,0.301-0.125c0.098-0.083,0.191-0.208,0.274-0.376c0.084-0.167,0.151-0.367,0.2-0.597
		c0.025-0.121,0.037-0.243,0.037-0.366c0-0.196-0.037-0.348-0.113-0.457c-0.076-0.107-0.171-0.16-0.288-0.16
		c-0.096,0-0.193,0.038-0.291,0.112c-0.098,0.076-0.186,0.188-0.264,0.335C59.807,46.013,59.753,46.192,59.719,46.402L59.719,46.402
		z M61.421,44.59l0.186-0.275l-0.823-0.587l-1.066,0.536l0.066,0.326l0.881-0.275L61.421,44.59L61.421,44.59z M60.412,49.28
		c0.007-0.039,0.01-0.068,0.01-0.084c0-0.1-0.034-0.179-0.104-0.234c-0.068-0.056-0.154-0.084-0.255-0.084
		c-0.117,0-0.226,0.036-0.328,0.105c-0.1,0.071-0.165,0.169-0.192,0.297c-0.01,0.045-0.015,0.089-0.015,0.13
		c0,0.111,0.034,0.199,0.101,0.261c0.067,0.063,0.15,0.095,0.248,0.095c0.077,0,0.152-0.018,0.226-0.055
		c0.074-0.037,0.138-0.091,0.193-0.165C60.351,49.473,60.39,49.384,60.412,49.28L60.412,49.28z M64.883,46.958l-0.115-0.085
		c-0.104,0.122-0.212,0.225-0.321,0.307c-0.11,0.082-0.217,0.142-0.322,0.181c-0.105,0.039-0.205,0.06-0.298,0.06
		c-0.126,0-0.238-0.033-0.337-0.096c-0.098-0.065-0.175-0.156-0.231-0.277c-0.055-0.12-0.083-0.261-0.083-0.422
		c0-0.052,0.002-0.092,0.005-0.119c0.032-0.226,0.099-0.418,0.201-0.58c0.102-0.162,0.222-0.283,0.361-0.365
		c0.138-0.082,0.275-0.122,0.412-0.122c0.16,0,0.29,0.057,0.39,0.172c0.101,0.115,0.151,0.29,0.151,0.525l0.187-0.05l-0.029-1.184
		c-0.057,0.077-0.154,0.117-0.291,0.117c-0.06,0-0.173-0.012-0.342-0.038c-0.169-0.025-0.304-0.038-0.404-0.038
		c-0.255,0-0.505,0.058-0.749,0.173c-0.244,0.116-0.453,0.278-0.631,0.487c-0.177,0.209-0.299,0.444-0.366,0.709
		c-0.021,0.109-0.033,0.224-0.033,0.347c0,0.223,0.046,0.429,0.138,0.615c0.092,0.187,0.232,0.341,0.42,0.462
		c0.189,0.12,0.422,0.193,0.699,0.218c0.038,0.003,0.095,0.005,0.171,0.005c0.098,0,0.219-0.008,0.366-0.024
		c0.147-0.015,0.243-0.022,0.289-0.022c0.102,0,0.153,0.028,0.153,0.086L64.883,46.958L64.883,46.958z M69.904,44.901
		c-0.046,0.054-0.119,0.081-0.221,0.081c-0.046,0-0.158-0.013-0.337-0.041c-0.179-0.027-0.337-0.04-0.471-0.04
		c-0.278,0-0.532,0.042-0.756,0.125c-0.225,0.084-0.408,0.198-0.548,0.345c-0.141,0.147-0.232,0.311-0.273,0.493
		c-0.013,0.061-0.019,0.125-0.019,0.19c0,0.199,0.066,0.348,0.199,0.445c0.132,0.098,0.288,0.167,0.467,0.209
		c0.178,0.042,0.359,0.088,0.542,0.136c0.183,0.049,0.275,0.119,0.275,0.213c0,0.049-0.017,0.104-0.052,0.165
		c-0.022,0.042-0.068,0.082-0.136,0.123c-0.069,0.041-0.154,0.074-0.251,0.1c-0.097,0.026-0.197,0.038-0.297,0.038
		c-0.213,0-0.393-0.063-0.538-0.189c-0.145-0.127-0.218-0.328-0.218-0.608l-0.186,0.044l-0.148,1.179
		c0.093-0.06,0.198-0.09,0.315-0.09c0.057,0,0.119,0.006,0.186,0.018c0.068,0.011,0.146,0.027,0.235,0.048
		c0.09,0.02,0.171,0.036,0.245,0.048c0.074,0.01,0.148,0.017,0.224,0.017c0.3,0,0.565-0.047,0.795-0.141
		c0.231-0.094,0.42-0.214,0.567-0.361c0.147-0.147,0.255-0.301,0.326-0.46c0.071-0.16,0.106-0.308,0.106-0.442
		c-0.02-0.189-0.101-0.336-0.242-0.441c-0.141-0.105-0.312-0.187-0.511-0.243c-0.2-0.057-0.376-0.108-0.527-0.151
		c-0.151-0.044-0.226-0.098-0.226-0.162c0-0.02,0.003-0.037,0.01-0.05c0.058-0.12,0.197-0.181,0.415-0.181
		c0.118,0,0.234,0.02,0.351,0.06c0.116,0.039,0.211,0.097,0.285,0.172c0.074,0.075,0.111,0.163,0.111,0.265h0.168L69.904,44.901
		L69.904,44.901z M72.155,45.028c-0.208,0-0.415,0.031-0.621,0.094c-0.206,0.063-0.402,0.155-0.585,0.28
		c-0.183,0.125-0.342,0.279-0.475,0.462c-0.134,0.184-0.23,0.391-0.289,0.624c-0.029,0.14-0.043,0.263-0.043,0.37
		c0,0.189,0.036,0.356,0.107,0.503c0.071,0.146,0.169,0.267,0.293,0.364c0.125,0.096,0.269,0.17,0.432,0.218
		c0.163,0.048,0.336,0.073,0.521,0.073c0.212,0,0.425-0.031,0.64-0.095c0.213-0.063,0.414-0.159,0.602-0.284
		c0.187-0.125,0.348-0.282,0.483-0.469c0.134-0.187,0.228-0.399,0.28-0.635c0.025-0.116,0.037-0.235,0.037-0.361
		c0-0.243-0.056-0.452-0.167-0.626c-0.111-0.174-0.261-0.304-0.451-0.391c-0.19-0.087-0.4-0.131-0.63-0.131
		C72.228,45.023,72.184,45.025,72.155,45.028L72.155,45.028z M71.313,46.428c0.034-0.21,0.089-0.388,0.167-0.537
		c0.077-0.147,0.165-0.259,0.264-0.335c0.098-0.074,0.195-0.112,0.291-0.112c0.117,0,0.213,0.053,0.288,0.16
		c0.076,0.108,0.114,0.261,0.114,0.457c0,0.123-0.013,0.245-0.038,0.366c-0.05,0.23-0.117,0.43-0.2,0.597
		c-0.084,0.167-0.175,0.293-0.274,0.376c-0.1,0.084-0.2,0.125-0.301,0.125c-0.103,0-0.189-0.057-0.257-0.169
		c-0.068-0.113-0.101-0.272-0.101-0.478C71.266,46.739,71.282,46.588,71.313,46.428L71.313,46.428z M73.015,44.617l0.187-0.275
		l-0.824-0.587l-1.066,0.536l0.066,0.326l0.881-0.275L73.015,44.617L73.015,44.617z M72.331,43.363l0.128,0.226l0.989-0.411
		c0.097-0.037,0.168-0.088,0.214-0.154c0.045-0.066,0.069-0.141,0.069-0.222c0-0.101-0.033-0.191-0.1-0.269
		c-0.065-0.078-0.147-0.117-0.245-0.117c-0.127,0-0.256,0.073-0.383,0.219L72.331,43.363L72.331,43.363z M75.3,45.454
		c0.195-0.173,0.396-0.304,0.599-0.39c0.204-0.088,0.393-0.132,0.567-0.132c0.191,0,0.342,0.049,0.458,0.149
		c0.116,0.1,0.173,0.235,0.173,0.409c0,0.05-0.005,0.1-0.014,0.149l-0.34,1.636c-0.016,0.089-0.025,0.151-0.025,0.189
		c0,0.148,0.083,0.222,0.249,0.222l-0.037,0.175H75.29l0.024-0.175c0.081,0,0.145-0.017,0.19-0.053
		c0.045-0.034,0.077-0.077,0.096-0.128c0.02-0.051,0.04-0.128,0.063-0.23l0.267-1.364c0.01-0.05,0.015-0.092,0.015-0.125
		c0-0.135-0.054-0.202-0.163-0.202c-0.071,0-0.154,0.032-0.247,0.094c-0.093,0.063-0.177,0.147-0.252,0.252
		c-0.076,0.106-0.124,0.218-0.146,0.336l-0.196,1.009c-0.016,0.089-0.025,0.147-0.025,0.175c0,0.157,0.077,0.237,0.23,0.237
		l-0.039,0.175H73.43l0.039-0.175c0.106,0,0.187-0.017,0.245-0.05c0.057-0.033,0.096-0.073,0.118-0.12
		c0.022-0.048,0.041-0.111,0.058-0.192l0.345-1.686c0.012-0.079,0.019-0.141,0.019-0.184c0-0.15-0.084-0.225-0.253-0.225
		l0.047-0.181l1.176-0.106c0.024,0.033,0.04,0.076,0.049,0.128c0.01,0.053,0.017,0.13,0.021,0.23
		C75.298,45.4,75.3,45.451,75.3,45.454L75.3,45.454z M81.191,45.229l0.043-0.181h-1.783c-0.301,0-0.575,0.058-0.825,0.174
		c-0.249,0.115-0.46,0.269-0.633,0.46c-0.172,0.191-0.304,0.401-0.395,0.628c-0.09,0.229-0.137,0.451-0.137,0.668
		c0,0.297,0.085,0.543,0.252,0.734c0.168,0.192,0.414,0.289,0.739,0.289c0.067,0,0.118-0.002,0.153-0.005
		c0.15-0.017,0.306-0.026,0.468-0.026c0.354,0,0.532,0.07,0.532,0.211c0,0.035-0.013,0.079-0.039,0.131
		c-0.069,0.132-0.192,0.24-0.369,0.324c-0.177,0.085-0.354,0.126-0.53,0.126c-0.025,0.004-0.065,0.005-0.119,0.005
		c-0.202,0-0.385-0.044-0.546-0.134c-0.162-0.088-0.242-0.215-0.242-0.377c0-0.072,0.016-0.146,0.048-0.222l-0.11-0.084
		l-0.718,0.811c0.117,0.11,0.258,0.202,0.425,0.277c0.166,0.074,0.348,0.129,0.545,0.166c0.196,0.037,0.401,0.055,0.613,0.055
		c0.278,0,0.547-0.03,0.809-0.09c0.261-0.059,0.494-0.147,0.699-0.262c0.205-0.114,0.36-0.251,0.467-0.411
		c0.128-0.202,0.191-0.371,0.191-0.506c0-0.066-0.011-0.125-0.033-0.175c-0.021-0.05-0.055-0.108-0.1-0.173
		c-0.044-0.065-0.077-0.117-0.097-0.158c-0.02-0.04-0.03-0.087-0.03-0.14c0-0.01,0.003-0.034,0.01-0.07l0.324-1.6
		c0.021-0.111,0.042-0.192,0.061-0.243c0.019-0.051,0.054-0.093,0.104-0.13C81.018,45.267,81.093,45.243,81.191,45.229
		L81.191,45.229z M79.8,45.454l-0.379,1.87c-0.014,0.067-0.048,0.119-0.103,0.155c-0.055,0.037-0.119,0.055-0.193,0.055
		c-0.09,0-0.178-0.026-0.266-0.077c-0.087-0.052-0.159-0.131-0.217-0.237c-0.057-0.106-0.086-0.236-0.086-0.389
		c0-0.031,0.002-0.079,0.009-0.144c0.029-0.23,0.103-0.441,0.219-0.632c0.117-0.191,0.257-0.34,0.422-0.449
		c0.163-0.108,0.325-0.162,0.484-0.162C79.711,45.444,79.748,45.447,79.8,45.454L79.8,45.454z M85.544,44.224l-0.364,0.562
		l0.063,0.031c0.048-0.037,0.099-0.06,0.152-0.069c0.053-0.009,0.127-0.012,0.221-0.012h0.607l-0.043,0.205
		c-0.054,0-0.116-0.007-0.186-0.019c-0.054-0.007-0.133-0.01-0.235-0.01c-0.313,0-0.597,0.057-0.851,0.17
		c-0.254,0.113-0.469,0.263-0.645,0.451c-0.176,0.187-0.31,0.393-0.403,0.618c-0.092,0.226-0.138,0.446-0.138,0.661
		c0,0.145,0.022,0.281,0.065,0.406c0.042,0.126,0.109,0.237,0.196,0.334c0.089,0.098,0.199,0.173,0.332,0.226
		c0.133,0.054,0.288,0.081,0.464,0.081h2.157l0.028-0.175c-0.137,0-0.205-0.066-0.205-0.196c0-0.053,0.012-0.125,0.038-0.216
		l0.502-2.507c0.046,0.016,0.076,0.033,0.086,0.05l0.392-0.573l-0.096-0.021c-0.031,0.036-0.066,0.058-0.104,0.068
		c-0.039,0.009-0.1,0.013-0.181,0.013l0.061-0.351l-1.44,0.086l-0.043,0.185c0.106,0,0.18,0.023,0.226,0.071h-0.392
		c-0.073,0-0.127-0.004-0.162-0.012C85.609,44.276,85.576,44.257,85.544,44.224L85.544,44.224z M86.093,45.364l-0.384,1.82
		c-0.013,0.077-0.055,0.138-0.123,0.183c-0.069,0.045-0.147,0.068-0.235,0.068c-0.138,0-0.261-0.056-0.365-0.168
		c-0.105-0.112-0.157-0.278-0.157-0.498c0-0.078,0.006-0.152,0.02-0.221c0.047-0.228,0.132-0.433,0.253-0.613
		c0.121-0.181,0.268-0.321,0.439-0.42C85.715,45.413,85.898,45.364,86.093,45.364L86.093,45.364z M87.348,46.462
		c0.059-0.232,0.155-0.44,0.289-0.624c0.133-0.183,0.292-0.337,0.475-0.462c0.183-0.123,0.379-0.217,0.585-0.28
		c0.206-0.063,0.414-0.094,0.621-0.094c0.029-0.003,0.074-0.005,0.133-0.005c0.23,0,0.441,0.044,0.63,0.131
		c0.165,0.076,0.3,0.184,0.405,0.325l0.71-0.973h0.618l-0.583,0.803c-0.019,0.034-0.028,0.071-0.028,0.111
		c0,0.03,0.009,0.055,0.028,0.074h-0.733c0.012,0.017,0.023,0.034,0.034,0.051c0.111,0.174,0.167,0.383,0.167,0.626
		c0,0.125-0.013,0.245-0.038,0.361c-0.052,0.237-0.146,0.448-0.28,0.635c-0.135,0.187-0.296,0.344-0.483,0.469
		c-0.187,0.125-0.388,0.221-0.602,0.284c-0.214,0.064-0.428,0.095-0.64,0.095c-0.185,0-0.358-0.025-0.521-0.073
		c-0.164-0.049-0.307-0.122-0.432-0.218c-0.124-0.097-0.222-0.218-0.293-0.364c-0.071-0.147-0.107-0.314-0.107-0.503
		C87.305,46.725,87.32,46.601,87.348,46.462L87.348,46.462z M88.477,46.402c-0.032,0.16-0.048,0.312-0.048,0.452
		c0,0.206,0.033,0.364,0.101,0.478c0.068,0.112,0.154,0.169,0.256,0.169c0.101,0,0.202-0.042,0.301-0.125
		c0.099-0.083,0.19-0.208,0.274-0.376c0.084-0.167,0.151-0.367,0.2-0.597c0.025-0.12,0.038-0.243,0.038-0.366
		c0-0.196-0.038-0.348-0.113-0.455c-0.076-0.108-0.172-0.162-0.289-0.162c-0.096,0-0.193,0.038-0.291,0.113
		c-0.099,0.076-0.186,0.187-0.264,0.334C88.566,46.013,88.511,46.192,88.477,46.402L88.477,46.402z M92.911,45.454
		c0-0.003-0.002-0.053-0.006-0.154c-0.005-0.1-0.012-0.177-0.022-0.23c-0.01-0.052-0.026-0.095-0.049-0.128l-1.176,0.106
		l-0.048,0.181c0.169,0,0.254,0.075,0.254,0.225c0,0.043-0.007,0.105-0.02,0.184l-0.344,1.686c-0.017,0.081-0.037,0.144-0.059,0.192
		c-0.022,0.047-0.061,0.087-0.118,0.12c-0.057,0.033-0.138,0.05-0.245,0.05l-0.038,0.175h1.679l0.038-0.175
		c-0.153,0-0.23-0.079-0.23-0.237c0-0.028,0.009-0.087,0.025-0.175l0.196-1.009c0.022-0.118,0.07-0.23,0.146-0.336
		c0.075-0.105,0.159-0.189,0.253-0.252c0.093-0.062,0.176-0.094,0.247-0.094c0.109,0,0.163,0.067,0.163,0.202
		c0,0.034-0.005,0.076-0.015,0.125l-0.268,1.364c-0.023,0.103-0.044,0.179-0.063,0.23c-0.019,0.051-0.051,0.095-0.096,0.128
		c-0.044,0.036-0.108,0.053-0.19,0.053l-0.023,0.175h1.64l0.037-0.175c-0.166,0-0.249-0.074-0.249-0.222
		c0-0.038,0.009-0.101,0.025-0.189l0.339-1.636c0.01-0.049,0.015-0.098,0.015-0.149c0-0.174-0.058-0.309-0.174-0.409
		c-0.115-0.1-0.268-0.149-0.458-0.149c-0.174,0-0.363,0.044-0.567,0.132C93.308,45.15,93.107,45.281,92.911,45.454L92.911,45.454z
		 M101.947,45.229c-0.098,0.013-0.173,0.038-0.223,0.073c-0.05,0.036-0.085,0.079-0.104,0.13c-0.019,0.051-0.039,0.132-0.061,0.243
		l-0.324,1.6c-0.007,0.036-0.01,0.06-0.01,0.07c0,0.053,0.01,0.1,0.029,0.14c0.02,0.041,0.053,0.093,0.097,0.158
		c0.044,0.065,0.078,0.123,0.1,0.173c0.022,0.05,0.033,0.108,0.033,0.175c0,0.135-0.063,0.304-0.191,0.506
		c-0.107,0.16-0.262,0.297-0.467,0.411c-0.205,0.116-0.438,0.203-0.699,0.262c-0.262,0.06-0.532,0.09-0.81,0.09
		c-0.211,0-0.417-0.018-0.613-0.055c-0.197-0.037-0.379-0.092-0.544-0.166c-0.167-0.075-0.309-0.167-0.425-0.277l0.718-0.811
		l0.11,0.084c-0.032,0.076-0.048,0.15-0.048,0.222c0,0.162,0.081,0.288,0.242,0.377c0.162,0.09,0.344,0.134,0.546,0.134
		c0.055,0,0.095-0.002,0.119-0.005c0.176,0,0.353-0.041,0.53-0.126c0.178-0.084,0.301-0.192,0.369-0.324
		c0.025-0.052,0.039-0.096,0.039-0.131c0-0.141-0.178-0.211-0.532-0.211c-0.162,0-0.318,0.01-0.468,0.026
		c-0.035,0.003-0.086,0.005-0.153,0.005c-0.325,0-0.57-0.096-0.739-0.289c-0.167-0.192-0.252-0.437-0.252-0.734
		c0-0.217,0.046-0.439,0.137-0.668c0.091-0.227,0.223-0.437,0.395-0.628c0.173-0.191,0.384-0.345,0.633-0.46
		c0.249-0.116,0.524-0.174,0.825-0.174h1.783L101.947,45.229L101.947,45.229z M100.555,45.454c-0.052-0.007-0.089-0.01-0.11-0.01
		c-0.159,0-0.32,0.054-0.484,0.162c-0.164,0.109-0.304,0.258-0.422,0.449c-0.117,0.191-0.191,0.402-0.219,0.632
		c-0.006,0.066-0.009,0.114-0.009,0.144c0,0.153,0.029,0.283,0.086,0.389c0.058,0.106,0.13,0.185,0.217,0.237
		c0.088,0.051,0.176,0.077,0.266,0.077c0.073,0,0.138-0.018,0.193-0.055c0.055-0.037,0.089-0.089,0.103-0.155L100.555,45.454
		L100.555,45.454z M102.677,44.131c-0.009,0.043-0.014,0.084-0.014,0.119c0,0.133,0.045,0.237,0.136,0.311
		c0.089,0.074,0.201,0.11,0.333,0.11c0.152,0,0.294-0.047,0.425-0.143c0.132-0.096,0.214-0.228,0.248-0.397
		c0.01-0.041,0.015-0.078,0.015-0.112c0-0.089-0.024-0.166-0.072-0.231c-0.048-0.066-0.112-0.115-0.191-0.149
		c-0.08-0.034-0.163-0.05-0.252-0.05c-0.145,0-0.282,0.049-0.408,0.147C102.769,43.834,102.695,43.965,102.677,44.131z"/>
	<path class="st1" d="M116.628,28.377l-7.367-10.562l-0.749-0.688h7.261l4.921,7.985l0.396-0.323l2.975-4.421
		c0.731-1.086,0.633-2.348-0.41-3.241h6.861l-7.931,11.247l-0.004,8.16l1.398,1.662h-8.525l1.202-1.637
		C116.657,33.84,116.558,31.089,116.628,28.377L116.628,28.377z M96.625,17.128c0.589,0.808,0.763,1.091,0.829,1.81
		c0.046,0.5,0.012,0.785-0.149,1.253l-5.48,15.888c-0.255,0.653-0.786,1.374-1.558,2.075h5.98c-0.443-0.393-0.727-0.862-0.831-1.42
		c-0.094-0.51-0.091-0.701,0.02-1.192l1.216-3.774h6.959l1.084,2.908c0.113,0.304,0.178,0.587,0.207,0.914
		c0.095,1.086-0.253,1.98-1.115,2.611h9.374c-0.92-0.819-1.764-1.676-2.241-2.717l-6.844-18.356
		C102.101,17.128,98.6,17.128,96.625,17.128L96.625,17.128z M102.59,29.031h-4.978l2.413-6.877L102.59,29.031L102.59,29.031z
		 M77.67,17.146l4.71-0.018h2.243H88.1c3.146,0,5.72,2.574,5.72,5.72v0.705c0,3.146-2.575,5.545-5.72,5.64l-2.609,0.079
		c2.097-0.965,2.975-3.402,2.713-5.596c-0.21-1.761-1.117-3.455-2.629-3.487l-0.953-0.02v15.678c0,0.305,0.053,0.432,0.213,0.7
		c0.256,0.426,0.597,0.853,0.949,1.279c0.092,0.111,0.184,0.221,0.275,0.332h-8.113c0.122-0.149,0.242-0.3,0.355-0.456
		c0.245-0.335,0.464-0.69,0.627-1.087c0.105-0.255,0.157-0.444,0.157-0.715V19.06C79.054,18.182,78.182,17.684,77.67,17.146z"/>
	<path class="st0" d="M33.683,17.034h6.55l5.496,15.761l4.662-13.056c0.085-0.507,0.012-0.671-0.182-1.108
		c-0.258-0.53-0.534-1.044-0.792-1.574h4.892c-0.29,1.066-0.718,2.235-1.088,3.309l-6.317,18.356
		c-1.724-0.344-3.646-1.026-5.133-2.435c-1.119-1.06-1.516-2.266-2.069-3.703l-5.282-13.987
		C34.213,18.045,33.956,17.551,33.683,17.034L33.683,17.034z M59.832,24.42v11.262c0,0.457,0.105,0.539,0.387,0.905l1.291,1.682
		h-6.165c0.347-0.53,0.694-1.06,1.041-1.589c0.268-0.437,0.384-0.586,0.384-1.093V19.852l-1.733-2.818h6.389l10.343,13.322V19.74
		c0-0.507-0.101-0.671-0.368-1.108c-0.347-0.53-0.709-1.044-1.056-1.574h6.159l-1.284,1.682c-0.281,0.367-0.387,0.448-0.387,0.905
		v19.163c-2.332-0.307-4.505-0.878-6.437-3.347L59.832,24.42z"/>
</g>
</svg>
